<svg width="144" height="69" viewBox="0 0 144 69" fill="none" xmlns="http://www.w3.org/2000/svg">
<path d="M50.6156 48.616C50.8062 49 50.9015 49.408 50.9015 49.84C50.9015 50.56 50.6156 51.16 50.0438 51.64C49.5197 52.12 48.8765 52.36 48.1142 52.36C46.923 52.36 46.0892 51.784 45.6127 50.632L40.5383 38.968H13.594L8.44816 50.632C7.97169 51.784 7.13787 52.36 5.9467 52.36C5.18435 52.36 4.5173 52.12 3.94553 51.64C3.37377 51.112 3.08789 50.488 3.08789 49.768C3.08789 49.384 3.18318 49 3.37377 48.616L23.8143 2.82398C24.1001 2.15198 24.529 1.64798 25.1007 1.31198C25.6725 0.975983 26.2919 0.807983 26.959 0.807983C27.6737 0.807983 28.3169 0.999984 28.8887 1.38398C29.4604 1.71998 29.8892 2.19998 30.1751 2.82398L50.6156 48.616ZM15.7381 34.072H38.3942L27.0304 8.22398L15.7381 34.072Z" fill="#F9F9F9"/>
<path d="M85.5651 47.536C86.1369 48.112 86.4228 48.808 86.4228 49.624C86.4228 50.344 86.1607 50.968 85.6366 51.496C85.1125 52.024 84.4931 52.288 83.7784 52.288C83.016 52.288 82.3251 51.952 81.7057 51.28L70.1275 37.96L58.6208 51.28C58.0014 51.952 57.3105 52.288 56.5482 52.288C55.8335 52.288 55.1903 52.024 54.6185 51.496C54.0944 50.968 53.8323 50.32 53.8323 49.552C53.8323 48.832 54.1182 48.16 54.69 47.536L66.554 34.072L55.1903 21.04C54.6185 20.368 54.3326 19.696 54.3326 19.024C54.3326 18.256 54.5947 17.608 55.1188 17.08C55.6906 16.552 56.31 16.288 56.977 16.288C57.7394 16.288 58.4302 16.624 59.0497 17.296L70.1275 30.112L81.2054 17.296C81.8248 16.624 82.5157 16.288 83.2781 16.288C83.9928 16.288 84.6122 16.552 85.1363 17.08C85.6604 17.608 85.9225 18.232 85.9225 18.952C85.9225 19.768 85.6366 20.464 85.0648 21.04L73.7011 34.072L85.5651 47.536Z" fill="#F9F9F9"/>
<path d="M120.215 43.864C120.739 43.864 121.192 44.08 121.573 44.512C121.954 44.944 122.144 45.496 122.144 46.168C122.144 47.368 121.311 48.472 119.643 49.48C117.928 50.488 116.117 51.256 114.211 51.784C112.305 52.264 110.447 52.504 108.637 52.504C103.253 52.504 98.9881 50.896 95.8434 47.68C92.7464 44.464 91.1979 40.024 91.1979 34.36C91.1979 30.76 91.8887 27.592 93.2705 24.856C94.6523 22.072 96.582 19.912 99.0596 18.376C101.585 16.84 104.444 16.072 107.636 16.072C112.162 16.072 115.76 17.56 118.428 20.536C121.096 23.512 122.43 27.544 122.43 32.632C122.43 33.592 122.24 34.288 121.859 34.72C121.477 35.152 120.858 35.368 120 35.368H96.987C97.4158 43.624 101.299 47.752 108.637 47.752C110.495 47.752 112.091 47.512 113.425 47.032C114.759 46.504 116.189 45.808 117.713 44.944C118.952 44.224 119.786 43.864 120.215 43.864ZM107.707 20.608C104.658 20.608 102.204 21.568 100.346 23.488C98.5355 25.408 97.4634 28.12 97.1299 31.624H117.356C117.261 28.072 116.379 25.36 114.712 23.488C113.044 21.568 110.709 20.608 107.707 20.608Z" fill="#F9F9F9"/>
<path d="M133.89 52.36C133.033 52.36 132.318 52.12 131.746 51.64C131.222 51.112 130.96 50.392 130.96 49.48V3.75998C130.96 2.84798 131.222 2.15198 131.746 1.67198C132.318 1.14398 133.033 0.879982 133.89 0.879982C134.7 0.879982 135.367 1.14398 135.891 1.67198C136.463 2.15198 136.749 2.84798 136.749 3.75998V49.48C136.749 50.392 136.463 51.112 135.891 51.64C135.367 52.12 134.7 52.36 133.89 52.36Z" fill="#F9F9F9"/>
<path d="M2 54C0.895431 54 0 54.8954 0 56C0 57.1046 0.895431 58 2 58V54ZM68.6 61.2C69.2627 60.3163 69.0837 59.0627 68.2 58.4C67.3163 57.7373 66.0627 57.9163 65.4 58.8L68.6 61.2ZM2 58H138V54H2V58ZM138 58C138.195 58 138.551 58.0947 138.973 58.7741C139.397 59.457 139.702 60.4826 139.752 61.5908C139.803 62.7082 139.585 63.6645 139.231 64.2638C138.931 64.7724 138.573 65 138 65V69C140.177 69 141.757 67.8526 142.675 66.2987C143.54 64.8355 143.822 63.0418 143.748 61.4092C143.673 59.7674 143.228 58.043 142.371 56.6634C141.512 55.2803 140.055 54 138 54V58ZM138 65C137.967 65 137.933 65 137.9 65C137.867 65 137.833 65 137.799 65C137.766 65 137.732 65 137.698 65C137.664 65 137.63 65 137.596 65C137.561 65 137.527 65 137.493 65C137.458 65 137.424 65 137.389 65C137.354 65 137.32 65 137.285 65C137.25 65 137.215 65 137.18 65C137.144 65 137.109 65 137.074 65C137.039 65 137.003 65 136.967 65C136.932 65 136.896 65 136.86 65C136.824 65 136.788 65 136.752 65C136.716 65 136.68 65 136.644 65C136.608 65 136.571 65 136.535 65C136.498 65 136.461 65 136.425 65C136.388 65 136.351 65 136.314 65C136.277 65 136.24 65 136.203 65C136.166 65 136.128 65 136.091 65C136.053 65 136.016 65 135.978 65C135.941 65 135.903 65 135.865 65C135.827 65 135.789 65 135.751 65C135.713 65 135.675 65 135.636 65C135.598 65 135.56 65 135.521 65C135.482 65 135.444 65 135.405 65C135.366 65 135.327 65 135.288 65C135.249 65 135.21 65 135.171 65C135.132 65 135.093 65 135.053 65C135.014 65 134.974 65 134.935 65C134.895 65 134.855 65 134.816 65C134.776 65 134.736 65 134.696 65C134.656 65 134.616 65 134.575 65C134.535 65 134.495 65 134.454 65C134.414 65 134.373 65 134.333 65C134.292 65 134.251 65 134.21 65C134.169 65 134.128 65 134.087 65C134.046 65 134.005 65 133.964 65C133.922 65 133.881 65 133.839 65C133.798 65 133.756 65 133.715 65C133.673 65 133.631 65 133.589 65C133.547 65 133.505 65 133.463 65C133.421 65 133.379 65 133.337 65C133.294 65 133.252 65 133.209 65C133.167 65 133.124 65 133.082 65C133.039 65 132.996 65 132.953 65C132.91 65 132.867 65 132.824 65C132.781 65 132.738 65 132.695 65C132.651 65 132.608 65 132.565 65C132.521 65 132.478 65 132.434 65C132.39 65 132.346 65 132.303 65C132.259 65 132.215 65 132.171 65C132.127 65 132.083 65 132.038 65C131.994 65 131.95 65 131.905 65C131.861 65 131.816 65 131.772 65C131.727 65 131.682 65 131.638 65C131.593 65 131.548 65 131.503 65C131.458 65 131.413 65 131.368 65C131.323 65 131.277 65 131.232 65C131.187 65 131.141 65 131.096 65C131.05 65 131.004 65 130.959 65C130.913 65 130.867 65 130.821 65C130.775 65 130.729 65 130.683 65C130.637 65 130.591 65 130.545 65C130.499 65 130.452 65 130.406 65C130.36 65 130.313 65 130.266 65C130.22 65 130.173 65 130.126 65C130.08 65 130.033 65 129.986 65C129.939 65 129.892 65 129.845 65C129.798 65 129.75 65 129.703 65C129.656 65 129.609 65 129.561 65C129.514 65 129.466 65 129.418 65C129.371 65 129.323 65 129.275 65C129.228 65 129.18 65 129.132 65C129.084 65 129.036 65 128.988 65C128.94 65 128.891 65 128.843 65C128.795 65 128.746 65 128.698 65C128.65 65 128.601 65 128.552 65C128.504 65 128.455 65 128.406 65C128.358 65 128.309 65 128.26 65C128.211 65 128.162 65 128.113 65C128.064 65 128.015 65 127.965 65C127.916 65 127.867 65 127.817 65C127.768 65 127.719 65 127.669 65C127.62 65 127.57 65 127.52 65C127.471 65 127.421 65 127.371 65C127.321 65 127.271 65 127.221 65C127.171 65 127.121 65 127.071 65C127.021 65 126.97 65 126.92 65C126.87 65 126.819 65 126.769 65C126.719 65 126.668 65 126.617 65C126.567 65 126.516 65 126.465 65C126.415 65 126.364 65 126.313 65C126.262 65 126.211 65 126.16 65C126.109 65 126.058 65 126.007 65C125.956 65 125.904 65 125.853 65C125.802 65 125.75 65 125.699 65C125.647 65 125.596 65 125.544 65C125.493 65 125.441 65 125.389 65C125.338 65 125.286 65 125.234 65C125.182 65 125.13 65 125.078 65C125.026 65 124.974 65 124.922 65C124.87 65 124.817 65 124.765 65C124.713 65 124.661 65 124.608 65C124.556 65 124.503 65 124.451 65C124.398 65 124.346 65 124.293 65C124.24 65 124.187 65 124.135 65C124.082 65 124.029 65 123.976 65C123.923 65 123.87 65 123.817 65C123.764 65 123.711 65 123.658 65C123.604 65 123.551 65 123.498 65C123.445 65 123.391 65 123.338 65C123.284 65 123.231 65 123.177 65C123.124 65 123.07 65 123.016 65C122.963 65 122.909 65 122.855 65C122.801 65 122.748 65 122.694 65C122.64 65 122.586 65 122.532 65C122.478 65 122.424 65 122.369 65C122.315 65 122.261 65 122.207 65C122.152 65 122.098 65 122.044 65C121.989 65 121.935 65 121.88 65C121.826 65 121.771 65 121.717 65C121.662 65 121.607 65 121.553 65C121.498 65 121.443 65 121.388 65C121.333 65 121.279 65 121.224 65C121.169 65 121.114 65 121.059 65C121.004 65 120.948 65 120.893 65C120.838 65 120.783 65 120.728 65C120.672 65 120.617 65 120.562 65C120.506 65 120.451 65 120.395 65C120.34 65 120.284 65 120.229 65C120.173 65 120.118 65 120.062 65C120.006 65 119.95 65 119.895 65C119.839 65 119.783 65 119.727 65C119.671 65 119.615 65 119.559 65C119.503 65 119.447 65 119.391 65C119.335 65 119.279 65 119.223 65C119.167 65 119.11 65 119.054 65C118.998 65 118.941 65 118.885 65C118.829 65 118.772 65 118.716 65C118.659 65 118.603 65 118.546 65C118.49 65 118.433 65 118.376 65C118.32 65 118.263 65 118.206 65C118.15 65 118.093 65 118.036 65C117.979 65 117.922 65 117.865 65C117.808 65 117.751 65 117.694 65C117.637 65 117.58 65 117.523 65C117.466 65 117.409 65 117.352 65C117.295 65 117.238 65 117.18 65C117.123 65 117.066 65 117.008 65C116.951 65 116.894 65 116.836 65C116.779 65 116.721 65 116.664 65C116.606 65 116.549 65 116.491 65C116.434 65 116.376 65 116.318 65C116.261 65 116.203 65 116.145 65C116.087 65 116.03 65 115.972 65C115.914 65 115.856 65 115.798 65C115.74 65 115.683 65 115.625 65C115.567 65 115.509 65 115.451 65C115.393 65 115.334 65 115.276 65C115.218 65 115.16 65 115.102 65C115.044 65 114.986 65 114.927 65C114.869 65 114.811 65 114.752 65C114.694 65 114.636 65 114.577 65C114.519 65 114.461 65 114.402 65C114.344 65 114.285 65 114.227 65C114.168 65 114.11 65 114.051 65C113.992 65 113.934 65 113.875 65C113.817 65 113.758 65 113.699 65C113.641 65 113.582 65 113.523 65C113.464 65 113.405 65 113.347 65C113.288 65 113.229 65 113.17 65C113.111 65 113.052 65 112.993 65C112.934 65 112.875 65 112.816 65C112.757 65 112.698 65 112.639 65C112.58 65 112.521 65 112.462 65C112.403 65 112.344 65 112.285 65C112.226 65 112.166 65 112.107 65C112.048 65 111.989 65 111.93 65C111.87 65 111.811 65 111.752 65C111.692 65 111.633 65 111.574 65C111.514 65 111.455 65 111.396 65C111.336 65 111.277 65 111.217 65C111.158 65 111.098 65 111.039 65C110.979 65 110.92 65 110.86 65C110.801 65 110.741 65 110.682 65C110.622 65 110.562 65 110.503 65C110.443 65 110.383 65 110.324 65C110.264 65 110.204 65 110.145 65C110.085 65 110.025 65 109.966 65C109.906 65 109.846 65 109.786 65C109.726 65 109.667 65 109.607 65C109.547 65 109.487 65 109.427 65C109.368 65 109.308 65 109.248 65C109.188 65 109.128 65 109.068 65C109.008 65 108.948 65 108.888 65C108.828 65 108.768 65 108.708 65C108.648 65 108.588 65 108.528 65C108.468 65 108.408 65 108.348 65C108.288 65 108.228 65 108.168 65C108.108 65 108.048 65 107.988 65C107.928 65 107.868 65 107.807 65C107.747 65 107.687 65 107.627 65C107.567 65 107.507 65 107.447 65C107.386 65 107.326 65 107.266 65C107.206 65 107.146 65 107.085 65C107.025 65 106.965 65 106.905 65C106.844 65 106.784 65 106.724 65C106.664 65 106.603 65 106.543 65C106.483 65 106.423 65 106.362 65C106.302 65 106.242 65 106.181 65C106.121 65 106.061 65 106 65C105.94 65 105.88 65 105.819 65C105.759 65 105.699 65 105.638 65C105.578 65 105.518 65 105.457 65C105.397 65 105.337 65 105.276 65C105.216 65 105.156 65 105.095 65C105.035 65 104.974 65 104.914 65C104.854 65 104.793 65 104.733 65C104.672 65 104.612 65 104.552 65C104.491 65 104.431 65 104.37 65C104.31 65 104.25 65 104.189 65C104.129 65 104.068 65 104.008 65C103.948 65 103.887 65 103.827 65C103.766 65 103.706 65 103.646 65C103.585 65 103.525 65 103.464 65C103.404 65 103.344 65 103.283 65C103.223 65 103.162 65 103.102 65C103.041 65 102.981 65 102.921 65C102.86 65 102.8 65 102.739 65C102.679 65 102.619 65 102.558 65C102.498 65 102.438 65 102.377 65C102.317 65 102.256 65 102.196 65C102.136 65 102.075 65 102.015 65C101.955 65 101.894 65 101.834 65C101.773 65 101.713 65 101.653 65C101.592 65 101.532 65 101.472 65C101.411 65 101.351 65 101.291 65C101.23 65 101.17 65 101.11 65C101.05 65 100.989 65 100.929 65C100.869 65 100.808 65 100.748 65C100.688 65 100.628 65 100.567 65C100.507 65 100.447 65 100.387 65C100.326 65 100.266 65 100.206 65C100.146 65 100.086 65 100.025 65C99.9652 65 99.905 65 99.8448 65C99.7847 65 99.7245 65 99.6644 65C99.6042 65 99.5441 65 99.484 65C99.4238 65 99.3637 65 99.3036 65C99.2436 65 99.1835 65 99.1234 65C99.0633 65 99.0033 65 98.9432 65C98.8832 65 98.8232 65 98.7632 65C98.7032 65 98.6432 65 98.5832 65C98.5232 65 98.4633 65 98.4033 65C98.3434 65 98.2834 65 98.2235 65C98.1636 65 98.1037 65 98.0438 65C97.9839 65 97.9241 65 97.8642 65C97.8044 65 97.7446 65 97.6847 65C97.6249 65 97.5651 65 97.5054 65C97.4456 65 97.3858 65 97.3261 65C97.2664 65 97.2066 65 97.147 65C97.0873 65 97.0276 65 96.9679 65C96.9083 65 96.8486 65 96.789 65C96.7294 65 96.6698 65 96.6102 65C96.5507 65 96.4911 65 96.4316 65C96.372 65 96.3125 65 96.253 65C96.1936 65 96.1341 65 96.0747 65C96.0152 65 95.9558 65 95.8964 65C95.837 65 95.7776 65 95.7183 65C95.659 65 95.5996 65 95.5403 65C95.481 65 95.4218 65 95.3625 65C95.3033 65 95.244 65 95.1849 65C95.1257 65 95.0665 65 95.0073 65C94.9482 65 94.8891 65 94.83 65C94.7709 65 94.7118 65 94.6528 65C94.5938 65 94.5348 65 94.4758 65C94.4168 65 94.3578 65 94.2989 65C94.24 65 94.1811 65 94.1222 65C94.0634 65 94.0045 65 93.9457 65C93.8869 65 93.8281 65 93.7694 65C93.7106 65 93.6519 65 93.5932 65C93.5345 65 93.4759 65 93.4173 65C93.3586 65 93.3 65 93.2415 65C93.1829 65 93.1244 65 93.0659 65C93.0074 65 92.9489 65 92.8905 65C92.8321 65 92.7737 65 92.7153 65C92.6569 65 92.5986 65 92.5403 65C92.482 65 92.4237 65 92.3655 65C92.3073 65 92.2491 65 92.1909 65C92.1328 65 92.0746 65 92.0165 65C91.9585 65 91.9004 65 91.8424 65C91.7844 65 91.7264 65 91.6684 65C91.6105 65 91.5526 65 91.4947 65C91.4368 65 91.379 65 91.3212 65C91.2634 65 91.2057 65 91.1479 65C91.0902 65 91.0325 65 90.9749 65C90.9173 65 90.8597 65 90.8021 65C90.7445 65 90.687 65 90.6295 65C90.572 65 90.5146 65 90.4572 65C90.3998 65 90.3424 65 90.2851 65C90.2278 65 90.1705 65 90.1133 65C90.056 65 89.9988 65 89.9417 65C89.8845 65 89.8274 65 89.7703 65C89.7133 65 89.6562 65 89.5992 65C89.5423 65 89.4853 65 89.4284 65C89.3715 65 89.3147 65 89.2579 65C89.2011 65 89.1443 65 89.0876 65C89.0309 65 88.9742 65 88.9175 65C88.8609 65 88.8043 65 88.7478 65C88.6913 65 88.6348 65 88.5783 65C88.5219 65 88.4655 65 88.4091 65C88.3528 65 88.2965 65 88.2402 65C88.184 65 88.1278 65 88.0716 65C88.0154 65 87.9593 65 87.9033 65C87.8472 65 87.7912 65 87.7352 65C87.6793 65 87.6233 65 87.5675 65C87.5116 65 87.4558 65 87.4 65C87.3443 65 87.2885 65 87.2329 65C87.1772 65 87.1216 65 87.066 65C87.0105 65 86.955 65 86.8995 65C86.8441 65 86.7887 65 86.7333 65C86.6779 65 86.6226 65 86.5674 65C86.5122 65 86.457 65 86.4018 65C86.3467 65 86.2916 65 86.2366 65C86.1815 65 86.1265 65 86.0716 65C86.0167 65 85.9618 65 85.907 65C85.8522 65 85.7974 65 85.7427 65C85.688 65 85.6334 65 85.5788 65C85.5242 65 85.4697 65 85.4152 65C85.3607 65 85.3063 65 85.252 65C85.1976 65 85.1433 65 85.089 65C85.0348 65 84.9806 65 84.9265 65C84.8723 65 84.8183 65 84.7643 65C84.7103 65 84.6563 65 84.6024 65C84.5485 65 84.4947 65 84.4409 65C84.3871 65 84.3334 65 84.2798 65C84.2261 65 84.1725 65 84.119 65C84.0655 65 84.012 65 83.9586 65C83.9052 65 83.8519 65 83.7986 65C83.7453 65 83.6921 65 83.6389 65C83.5858 65 83.5327 65 83.4796 65C83.4266 65 83.3736 65 83.3207 65C83.2678 65 83.215 65 83.1622 65C83.1095 65 83.0567 65 83.0041 65C82.9515 65 82.8989 65 82.8464 65C82.7939 65 82.7414 65 82.689 65C82.6367 65 82.5843 65 82.5321 65C82.4798 65 82.4277 65 82.3756 65C82.3234 65 82.2714 65 82.2194 65C82.1674 65 82.1155 65 82.0637 65C82.0119 65 81.9601 65 81.9084 65C81.8567 65 81.805 65 81.7535 65C81.7019 65 81.6504 65 81.599 65C81.5476 65 81.4962 65 81.4449 65C81.3936 65 81.3424 65 81.2913 65C81.2401 65 81.1891 65 81.1381 65C81.0871 65 81.0362 65 80.9853 65C80.9344 65 80.8837 65 80.833 65C80.7822 65 80.7316 65 80.681 65C80.6305 65 80.58 65 80.5296 65C80.4792 65 80.4288 65 80.3785 65C80.3283 65 80.2781 65 80.228 65C80.1779 65 80.1278 65 80.0778 65C80.0279 65 79.978 65 79.9282 65C79.8784 65 79.8286 65 79.779 65C79.7293 65 79.6797 65 79.6302 65C79.5807 65 79.5313 65 79.4819 65C79.4325 65 79.3833 65 79.3341 65C79.2849 65 79.2358 65 79.1867 65C79.1377 65 79.0887 65 79.0398 65C78.991 65 78.9422 65 78.8934 65C78.8447 65 78.7961 65 78.7475 65C78.6989 65 78.6505 65 78.6021 65C78.5537 65 78.5053 65 78.4571 65C78.4089 65 78.3607 65 78.3126 65C78.2646 65 78.2166 65 78.1687 65C78.1208 65 78.0729 65 78.0252 65C77.9774 65 77.9298 65 77.8822 65C77.8346 65 77.7871 65 77.7397 65C77.6923 65 77.645 65 77.5978 65C77.5505 65 77.5034 65 77.4563 65C77.4092 65 77.3623 65 77.3154 65C77.2685 65 77.2217 65 77.1749 65C77.1282 65 77.0816 65 77.035 65C76.9885 65 76.942 65 76.8956 65C76.8493 65 76.803 65 76.7568 65C76.7106 65 76.6645 65 76.6184 65C76.5724 65 76.5265 65 76.4806 65C76.4348 65 76.389 65 76.3434 65C76.2977 65 76.2521 65 76.2067 65C76.1612 65 76.1158 65 76.0705 65C76.0252 65 75.98 65 75.9348 65C75.8897 65 75.8447 65 75.7998 65C75.7548 65 75.71 65 75.6652 65C75.6205 65 75.5758 65 75.5312 65C75.4867 65 75.4422 65 75.3978 65C75.3534 65 75.3091 65 75.265 65C75.2208 65 75.1767 65 75.1327 65C75.0887 65 75.0448 65 75.0009 65C74.9571 65 74.9134 65 74.8698 65C74.8262 65 74.7826 65 74.7392 65C74.6958 65 74.6524 65 74.6092 65C74.566 65 74.5228 65 74.4798 65C74.4367 65 74.3938 65 74.351 65C74.3081 65 74.2654 65 74.2227 65C74.1801 65 74.1375 65 74.0951 65C74.0526 65 74.0103 65 73.968 65C73.9257 65 73.8836 65 73.8415 65C73.7995 65 73.7575 65 73.7157 65C73.6738 65 73.6321 65 73.5904 65C73.5488 65 73.5072 65 73.4658 65C73.4243 65 73.383 65 73.3418 65C73.3005 65 73.2594 65 73.2183 65C73.1773 65 73.1364 65 73.0955 65C73.0547 65 73.014 65 72.9734 65C72.9327 65 72.8922 65 72.8518 65C72.8114 65 72.7711 65 72.7309 65C72.6907 65 72.6506 65 72.6106 65C72.5706 65 72.5307 65 72.4909 65C72.4511 65 72.4115 65 72.3719 65C72.3323 65 72.2929 65 72.2535 65C72.2142 65 72.1749 65 72.1358 65C72.0966 65 72.0576 65 72.0187 65C71.9798 65 71.9409 65 71.9022 65C71.8635 65 71.8249 65 71.7864 65C71.748 65 71.7096 65 71.6713 65C71.6331 65 71.5949 65 71.5568 65C71.5188 65 71.4809 65 71.443 65C71.4052 65 71.3675 65 71.3299 65C71.2923 65 71.2548 65 71.2174 65C71.1801 65 71.1428 65 71.1056 65C71.0685 65 71.0315 65 70.9945 65C70.9576 65 70.9208 65 70.8841 65C70.8474 65 70.8108 65 70.7743 65C70.7379 65 70.7015 65 70.6653 65C70.629 65 70.5929 65 70.5569 65C70.5209 65 70.485 65 70.4492 65C70.4134 65 70.3778 65 70.3422 65C70.3067 65 70.2713 65 70.2359 65C70.2006 65 70.1654 65 70.1304 65C70.0953 65 70.0603 65 70.0255 65C69.9907 65 69.9559 65 69.9213 65C69.8867 65 69.8522 65 69.8179 65C69.7835 65 69.7493 65 69.7151 65C69.681 65 69.647 65 69.6131 65C69.5792 65 69.5455 65 69.5118 65C69.4782 65 69.4447 65 69.4113 65C69.3779 65 69.3446 65 69.3114 65C69.2783 65 69.2452 65 69.2123 65C69.1794 65 69.1466 65 69.114 65C69.0813 65 69.0487 65 69.0163 65C68.9839 65 68.9516 65 68.9194 65C68.8873 65 68.8552 65 68.8233 65C68.7914 65 68.7596 65 68.7279 65C68.6962 65 68.6647 65 68.6333 65C68.6019 65 68.5706 65 68.5394 65C68.5082 65 68.4772 65 68.4463 65C68.4154 65 68.3846 65 68.3539 65C68.3233 65 68.2927 65 68.2623 65C68.2319 65 68.2016 65 68.1715 65C68.1413 65 68.1113 65 68.0814 65C68.0516 65 68.0218 65 67.9922 65C67.9625 65 67.933 65 67.9037 65C67.8743 65 67.8451 65 67.8159 65C67.7868 65 67.7579 65 67.729 65C67.7002 65 67.6715 65 67.6429 65C67.6143 65 67.5858 65 67.5575 65C67.5292 65 67.501 65 67.473 65C67.4449 65 67.417 65 67.3892 65C67.3614 65 67.3338 65 67.3063 65C67.2787 65 67.2514 65 67.2241 65C67.1969 65 67.1697 65 67.1428 65C67.1158 65 67.0889 65 67.0622 65C67.0355 65 67.009 65 66.9825 65C66.9561 65 66.9298 65 66.9036 65C66.8775 65 66.8514 65 66.8256 65C66.7997 65 66.7739 65 66.7483 65C66.7227 65 66.6972 65 66.6719 65C66.6466 65 66.6214 65 66.5963 65C66.5712 65 66.5463 65 66.5215 65C66.4968 65 66.4721 65 66.4476 65C66.4231 65 66.3988 65 66.3746 65C66.3503 65 66.3263 65 66.3023 65C66.2784 65 66.2546 65 66.2309 65C66.2073 65 66.1838 65 66.1604 65C66.137 65 66.1138 65 66.0907 65C66.0676 65 66.0447 65 66.0219 65C65.9991 65 65.9765 65 65.954 65C65.9314 65 65.9091 65 65.8869 65C65.8646 65 65.8426 65 65.8206 65C65.7987 65 65.7769 65 65.7553 65C65.7336 65 65.7121 65 65.6908 65C65.6694 65 65.6482 65 65.6272 65C65.6061 65 65.5852 65 65.5645 65C65.5437 65 65.5231 65 65.5026 65C65.4822 65 65.4618 65 65.4417 65C65.4215 65 65.4015 65 65.3816 65C65.3617 65 65.342 65 65.3224 65C65.3029 65 65.2834 65 65.2642 65C65.2449 65 65.2258 65 65.2068 65C65.1878 65 65.169 65 65.1503 65C65.1317 65 65.1131 65 65.0948 65C65.0764 65 65.0582 65 65.0401 65C65.0221 65 65.0041 65 64.9864 65C64.9686 65 64.951 65 64.9336 65C64.9161 65 64.8988 65 64.8817 65C64.8645 65 64.8475 65 64.8307 65C64.8139 65 64.7972 65 64.7806 65C64.7641 65 64.7477 65 64.7315 65C64.7153 65 64.6992 65 64.6833 65C64.6674 65 64.6517 65 64.6361 65C64.6205 65 64.6051 65 64.5898 65C64.5745 65 64.5594 65 64.5444 65C64.5295 65 64.5146 65 64.5 65V69C64.5146 69 64.5295 69 64.5444 69C64.5594 69 64.5745 69 64.5898 69C64.6051 69 64.6205 69 64.6361 69C64.6517 69 64.6674 69 64.6833 69C64.6992 69 64.7153 69 64.7315 69C64.7477 69 64.7641 69 64.7806 69C64.7972 69 64.8139 69 64.8307 69C64.8475 69 64.8645 69 64.8817 69C64.8988 69 64.9161 69 64.9336 69C64.951 69 64.9686 69 64.9864 69C65.0041 69 65.0221 69 65.0401 69C65.0582 69 65.0764 69 65.0948 69C65.1131 69 65.1317 69 65.1503 69C65.169 69 65.1878 69 65.2068 69C65.2258 69 65.2449 69 65.2642 69C65.2834 69 65.3029 69 65.3224 69C65.342 69 65.3617 69 65.3816 69C65.4015 69 65.4215 69 65.4417 69C65.4618 69 65.4822 69 65.5026 69C65.5231 69 65.5437 69 65.5645 69C65.5852 69 65.6061 69 65.6272 69C65.6482 69 65.6694 69 65.6908 69C65.7121 69 65.7336 69 65.7553 69C65.7769 69 65.7987 69 65.8206 69C65.8426 69 65.8646 69 65.8869 69C65.9091 69 65.9314 69 65.954 69C65.9765 69 65.9991 69 66.0219 69C66.0447 69 66.0676 69 66.0907 69C66.1138 69 66.137 69 66.1604 69C66.1838 69 66.2073 69 66.2309 69C66.2546 69 66.2784 69 66.3023 69C66.3263 69 66.3503 69 66.3746 69C66.3988 69 66.4231 69 66.4476 69C66.4721 69 66.4968 69 66.5215 69C66.5463 69 66.5712 69 66.5963 69C66.6214 69 66.6466 69 66.6719 69C66.6972 69 66.7227 69 66.7483 69C66.7739 69 66.7997 69 66.8256 69C66.8514 69 66.8775 69 66.9036 69C66.9298 69 66.9561 69 66.9825 69C67.009 69 67.0355 69 67.0622 69C67.0889 69 67.1158 69 67.1428 69C67.1697 69 67.1969 69 67.2241 69C67.2514 69 67.2787 69 67.3063 69C67.3338 69 67.3614 69 67.3892 69C67.417 69 67.4449 69 67.473 69C67.501 69 67.5292 69 67.5575 69C67.5858 69 67.6143 69 67.6429 69C67.6715 69 67.7002 69 67.729 69C67.7579 69 67.7868 69 67.8159 69C67.8451 69 67.8743 69 67.9037 69C67.933 69 67.9625 69 67.9922 69C68.0218 69 68.0516 69 68.0814 69C68.1113 69 68.1413 69 68.1715 69C68.2016 69 68.2319 69 68.2623 69C68.2927 69 68.3233 69 68.3539 69C68.3846 69 68.4154 69 68.4463 69C68.4772 69 68.5082 69 68.5394 69C68.5706 69 68.6019 69 68.6333 69C68.6647 69 68.6962 69 68.7279 69C68.7596 69 68.7914 69 68.8233 69C68.8552 69 68.8873 69 68.9194 69C68.9516 69 68.9839 69 69.0163 69C69.0487 69 69.0813 69 69.114 69C69.1466 69 69.1794 69 69.2123 69C69.2452 69 69.2783 69 69.3114 69C69.3446 69 69.3779 69 69.4113 69C69.4447 69 69.4782 69 69.5118 69C69.5455 69 69.5792 69 69.6131 69C69.647 69 69.681 69 69.7151 69C69.7493 69 69.7835 69 69.8179 69C69.8522 69 69.8867 69 69.9213 69C69.9559 69 69.9907 69 70.0255 69C70.0603 69 70.0953 69 70.1304 69C70.1654 69 70.2006 69 70.2359 69C70.2713 69 70.3067 69 70.3422 69C70.3778 69 70.4134 69 70.4492 69C70.485 69 70.5209 69 70.5569 69C70.5929 69 70.629 69 70.6653 69C70.7015 69 70.7379 69 70.7743 69C70.8108 69 70.8474 69 70.8841 69C70.9208 69 70.9576 69 70.9945 69C71.0315 69 71.0685 69 71.1056 69C71.1428 69 71.1801 69 71.2174 69C71.2548 69 71.2923 69 71.3299 69C71.3675 69 71.4052 69 71.443 69C71.4809 69 71.5188 69 71.5568 69C71.5949 69 71.6331 69 71.6713 69C71.7096 69 71.748 69 71.7864 69C71.8249 69 71.8635 69 71.9022 69C71.9409 69 71.9798 69 72.0187 69C72.0576 69 72.0966 69 72.1358 69C72.1749 69 72.2142 69 72.2535 69C72.2929 69 72.3323 69 72.3719 69C72.4115 69 72.4511 69 72.4909 69C72.5307 69 72.5706 69 72.6106 69C72.6506 69 72.6907 69 72.7309 69C72.7711 69 72.8114 69 72.8518 69C72.8922 69 72.9327 69 72.9734 69C73.014 69 73.0547 69 73.0955 69C73.1364 69 73.1773 69 73.2183 69C73.2594 69 73.3005 69 73.3418 69C73.383 69 73.4243 69 73.4658 69C73.5072 69 73.5488 69 73.5904 69C73.6321 69 73.6738 69 73.7157 69C73.7575 69 73.7995 69 73.8415 69C73.8836 69 73.9257 69 73.968 69C74.0103 69 74.0526 69 74.0951 69C74.1375 69 74.1801 69 74.2227 69C74.2654 69 74.3081 69 74.351 69C74.3938 69 74.4367 69 74.4798 69C74.5228 69 74.566 69 74.6092 69C74.6524 69 74.6958 69 74.7392 69C74.7826 69 74.8262 69 74.8698 69C74.9134 69 74.9571 69 75.0009 69C75.0448 69 75.0887 69 75.1327 69C75.1767 69 75.2208 69 75.265 69C75.3091 69 75.3534 69 75.3978 69C75.4422 69 75.4867 69 75.5312 69C75.5758 69 75.6205 69 75.6652 69C75.71 69 75.7548 69 75.7998 69C75.8447 69 75.8897 69 75.9348 69C75.98 69 76.0252 69 76.0705 69C76.1158 69 76.1612 69 76.2067 69C76.2521 69 76.2977 69 76.3434 69C76.389 69 76.4348 69 76.4806 69C76.5265 69 76.5724 69 76.6184 69C76.6645 69 76.7106 69 76.7568 69C76.803 69 76.8493 69 76.8956 69C76.942 69 76.9885 69 77.035 69C77.0816 69 77.1282 69 77.1749 69C77.2217 69 77.2685 69 77.3154 69C77.3623 69 77.4092 69 77.4563 69C77.5034 69 77.5505 69 77.5978 69C77.645 69 77.6923 69 77.7397 69C77.7871 69 77.8346 69 77.8822 69C77.9298 69 77.9774 69 78.0252 69C78.0729 69 78.1208 69 78.1687 69C78.2166 69 78.2646 69 78.3126 69C78.3607 69 78.4089 69 78.4571 69C78.5053 69 78.5537 69 78.6021 69C78.6505 69 78.6989 69 78.7475 69C78.7961 69 78.8447 69 78.8934 69C78.9422 69 78.991 69 79.0398 69C79.0887 69 79.1377 69 79.1867 69C79.2358 69 79.2849 69 79.3341 69C79.3833 69 79.4325 69 79.4819 69C79.5313 69 79.5807 69 79.6302 69C79.6797 69 79.7293 69 79.779 69C79.8286 69 79.8784 69 79.9282 69C79.978 69 80.0279 69 80.0778 69C80.1278 69 80.1779 69 80.228 69C80.2781 69 80.3283 69 80.3785 69C80.4288 69 80.4792 69 80.5296 69C80.58 69 80.6305 69 80.681 69C80.7316 69 80.7822 69 80.833 69C80.8837 69 80.9344 69 80.9853 69C81.0362 69 81.0871 69 81.1381 69C81.1891 69 81.2401 69 81.2913 69C81.3424 69 81.3936 69 81.4449 69C81.4962 69 81.5476 69 81.599 69C81.6504 69 81.7019 69 81.7535 69C81.805 69 81.8567 69 81.9084 69C81.9601 69 82.0119 69 82.0637 69C82.1155 69 82.1674 69 82.2194 69C82.2714 69 82.3234 69 82.3756 69C82.4277 69 82.4798 69 82.5321 69C82.5843 69 82.6367 69 82.689 69C82.7414 69 82.7939 69 82.8464 69C82.8989 69 82.9515 69 83.0041 69C83.0567 69 83.1095 69 83.1622 69C83.215 69 83.2678 69 83.3207 69C83.3736 69 83.4266 69 83.4796 69C83.5327 69 83.5858 69 83.6389 69C83.6921 69 83.7453 69 83.7986 69C83.8519 69 83.9052 69 83.9586 69C84.012 69 84.0655 69 84.119 69C84.1725 69 84.2261 69 84.2798 69C84.3334 69 84.3871 69 84.4409 69C84.4947 69 84.5485 69 84.6024 69C84.6563 69 84.7103 69 84.7643 69C84.8183 69 84.8723 69 84.9265 69C84.9806 69 85.0348 69 85.089 69C85.1433 69 85.1976 69 85.252 69C85.3063 69 85.3607 69 85.4152 69C85.4697 69 85.5242 69 85.5788 69C85.6334 69 85.688 69 85.7427 69C85.7974 69 85.8522 69 85.907 69C85.9618 69 86.0167 69 86.0716 69C86.1265 69 86.1815 69 86.2366 69C86.2916 69 86.3467 69 86.4018 69C86.457 69 86.5122 69 86.5674 69C86.6226 69 86.6779 69 86.7333 69C86.7887 69 86.8441 69 86.8995 69C86.955 69 87.0105 69 87.066 69C87.1216 69 87.1772 69 87.2329 69C87.2885 69 87.3443 69 87.4 69C87.4558 69 87.5116 69 87.5675 69C87.6233 69 87.6793 69 87.7352 69C87.7912 69 87.8472 69 87.9033 69C87.9593 69 88.0154 69 88.0716 69C88.1278 69 88.184 69 88.2402 69C88.2965 69 88.3528 69 88.4091 69C88.4655 69 88.5219 69 88.5783 69C88.6348 69 88.6913 69 88.7478 69C88.8043 69 88.8609 69 88.9175 69C88.9742 69 89.0309 69 89.0876 69C89.1443 69 89.2011 69 89.2579 69C89.3147 69 89.3715 69 89.4284 69C89.4853 69 89.5423 69 89.5992 69C89.6562 69 89.7133 69 89.7703 69C89.8274 69 89.8845 69 89.9417 69C89.9988 69 90.056 69 90.1133 69C90.1705 69 90.2278 69 90.2851 69C90.3424 69 90.3998 69 90.4572 69C90.5146 69 90.572 69 90.6295 69C90.687 69 90.7445 69 90.8021 69C90.8597 69 90.9173 69 90.9749 69C91.0325 69 91.0902 69 91.1479 69C91.2057 69 91.2634 69 91.3212 69C91.379 69 91.4368 69 91.4947 69C91.5526 69 91.6105 69 91.6684 69C91.7264 69 91.7844 69 91.8424 69C91.9004 69 91.9585 69 92.0165 69C92.0746 69 92.1328 69 92.1909 69C92.2491 69 92.3073 69 92.3655 69C92.4237 69 92.482 69 92.5403 69C92.5986 69 92.6569 69 92.7153 69C92.7737 69 92.8321 69 92.8905 69C92.9489 69 93.0074 69 93.0659 69C93.1244 69 93.1829 69 93.2415 69C93.3 69 93.3586 69 93.4173 69C93.4759 69 93.5345 69 93.5932 69C93.6519 69 93.7106 69 93.7694 69C93.8281 69 93.8869 69 93.9457 69C94.0045 69 94.0634 69 94.1222 69C94.1811 69 94.24 69 94.2989 69C94.3578 69 94.4168 69 94.4758 69C94.5348 69 94.5938 69 94.6528 69C94.7118 69 94.7709 69 94.83 69C94.8891 69 94.9482 69 95.0073 69C95.0665 69 95.1257 69 95.1849 69C95.244 69 95.3033 69 95.3625 69C95.4218 69 95.481 69 95.5403 69C95.5996 69 95.659 69 95.7183 69C95.7776 69 95.837 69 95.8964 69C95.9558 69 96.0152 69 96.0747 69C96.1341 69 96.1936 69 96.253 69C96.3125 69 96.372 69 96.4316 69C96.4911 69 96.5507 69 96.6102 69C96.6698 69 96.7294 69 96.789 69C96.8486 69 96.9083 69 96.9679 69C97.0276 69 97.0873 69 97.147 69C97.2066 69 97.2664 69 97.3261 69C97.3858 69 97.4456 69 97.5054 69C97.5651 69 97.6249 69 97.6847 69C97.7446 69 97.8044 69 97.8642 69C97.9241 69 97.9839 69 98.0438 69C98.1037 69 98.1636 69 98.2235 69C98.2834 69 98.3434 69 98.4033 69C98.4633 69 98.5232 69 98.5832 69C98.6432 69 98.7032 69 98.7632 69C98.8232 69 98.8832 69 98.9432 69C99.0033 69 99.0633 69 99.1234 69C99.1835 69 99.2436 69 99.3036 69C99.3637 69 99.4238 69 99.484 69C99.5441 69 99.6042 69 99.6644 69C99.7245 69 99.7847 69 99.8448 69C99.905 69 99.9652 69 100.025 69C100.086 69 100.146 69 100.206 69C100.266 69 100.326 69 100.387 69C100.447 69 100.507 69 100.567 69C100.628 69 100.688 69 100.748 69C100.808 69 100.869 69 100.929 69C100.989 69 101.05 69 101.11 69C101.17 69 101.23 69 101.291 69C101.351 69 101.411 69 101.472 69C101.532 69 101.592 69 101.653 69C101.713 69 101.773 69 101.834 69C101.894 69 101.955 69 102.015 69C102.075 69 102.136 69 102.196 69C102.256 69 102.317 69 102.377 69C102.438 69 102.498 69 102.558 69C102.619 69 102.679 69 102.739 69C102.8 69 102.86 69 102.921 69C102.981 69 103.041 69 103.102 69C103.162 69 103.223 69 103.283 69C103.344 69 103.404 69 103.464 69C103.525 69 103.585 69 103.646 69C103.706 69 103.766 69 103.827 69C103.887 69 103.948 69 104.008 69C104.068 69 104.129 69 104.189 69C104.25 69 104.31 69 104.37 69C104.431 69 104.491 69 104.552 69C104.612 69 104.672 69 104.733 69C104.793 69 104.854 69 104.914 69C104.974 69 105.035 69 105.095 69C105.156 69 105.216 69 105.276 69C105.337 69 105.397 69 105.457 69C105.518 69 105.578 69 105.638 69C105.699 69 105.759 69 105.819 69C105.88 69 105.94 69 106 69C106.061 69 106.121 69 106.181 69C106.242 69 106.302 69 106.362 69C106.423 69 106.483 69 106.543 69C106.603 69 106.664 69 106.724 69C106.784 69 106.844 69 106.905 69C106.965 69 107.025 69 107.085 69C107.146 69 107.206 69 107.266 69C107.326 69 107.386 69 107.447 69C107.507 69 107.567 69 107.627 69C107.687 69 107.747 69 107.807 69C107.868 69 107.928 69 107.988 69C108.048 69 108.108 69 108.168 69C108.228 69 108.288 69 108.348 69C108.408 69 108.468 69 108.528 69C108.588 69 108.648 69 108.708 69C108.768 69 108.828 69 108.888 69C108.948 69 109.008 69 109.068 69C109.128 69 109.188 69 109.248 69C109.308 69 109.368 69 109.427 69C109.487 69 109.547 69 109.607 69C109.667 69 109.726 69 109.786 69C109.846 69 109.906 69 109.966 69C110.025 69 110.085 69 110.145 69C110.204 69 110.264 69 110.324 69C110.383 69 110.443 69 110.503 69C110.562 69 110.622 69 110.682 69C110.741 69 110.801 69 110.86 69C110.92 69 110.979 69 111.039 69C111.098 69 111.158 69 111.217 69C111.277 69 111.336 69 111.396 69C111.455 69 111.514 69 111.574 69C111.633 69 111.692 69 111.752 69C111.811 69 111.87 69 111.93 69C111.989 69 112.048 69 112.107 69C112.166 69 112.226 69 112.285 69C112.344 69 112.403 69 112.462 69C112.521 69 112.58 69 112.639 69C112.698 69 112.757 69 112.816 69C112.875 69 112.934 69 112.993 69C113.052 69 113.111 69 113.17 69C113.229 69 113.288 69 113.347 69C113.405 69 113.464 69 113.523 69C113.582 69 113.641 69 113.699 69C113.758 69 113.817 69 113.875 69C113.934 69 113.992 69 114.051 69C114.11 69 114.168 69 114.227 69C114.285 69 114.344 69 114.402 69C114.461 69 114.519 69 114.577 69C114.636 69 114.694 69 114.752 69C114.811 69 114.869 69 114.927 69C114.986 69 115.044 69 115.102 69C115.16 69 115.218 69 115.276 69C115.334 69 115.393 69 115.451 69C115.509 69 115.567 69 115.625 69C115.683 69 115.74 69 115.798 69C115.856 69 115.914 69 115.972 69C116.03 69 116.087 69 116.145 69C116.203 69 116.261 69 116.318 69C116.376 69 116.434 69 116.491 69C116.549 69 116.606 69 116.664 69C116.721 69 116.779 69 116.836 69C116.894 69 116.951 69 117.008 69C117.066 69 117.123 69 117.18 69C117.238 69 117.295 69 117.352 69C117.409 69 117.466 69 117.523 69C117.58 69 117.637 69 117.694 69C117.751 69 117.808 69 117.865 69C117.922 69 117.979 69 118.036 69C118.093 69 118.15 69 118.206 69C118.263 69 118.32 69 118.376 69C118.433 69 118.49 69 118.546 69C118.603 69 118.659 69 118.716 69C118.772 69 118.829 69 118.885 69C118.941 69 118.998 69 119.054 69C119.11 69 119.167 69 119.223 69C119.279 69 119.335 69 119.391 69C119.447 69 119.503 69 119.559 69C119.615 69 119.671 69 119.727 69C119.783 69 119.839 69 119.895 69C119.95 69 120.006 69 120.062 69C120.118 69 120.173 69 120.229 69C120.284 69 120.34 69 120.395 69C120.451 69 120.506 69 120.562 69C120.617 69 120.672 69 120.728 69C120.783 69 120.838 69 120.893 69C120.948 69 121.004 69 121.059 69C121.114 69 121.169 69 121.224 69C121.279 69 121.333 69 121.388 69C121.443 69 121.498 69 121.553 69C121.607 69 121.662 69 121.717 69C121.771 69 121.826 69 121.88 69C121.935 69 121.989 69 122.044 69C122.098 69 122.152 69 122.207 69C122.261 69 122.315 69 122.369 69C122.424 69 122.478 69 122.532 69C122.586 69 122.64 69 122.694 69C122.748 69 122.801 69 122.855 69C122.909 69 122.963 69 123.016 69C123.07 69 123.124 69 123.177 69C123.231 69 123.284 69 123.338 69C123.391 69 123.445 69 123.498 69C123.551 69 123.604 69 123.658 69C123.711 69 123.764 69 123.817 69C123.87 69 123.923 69 123.976 69C124.029 69 124.082 69 124.135 69C124.187 69 124.24 69 124.293 69C124.346 69 124.398 69 124.451 69C124.503 69 124.556 69 124.608 69C124.661 69 124.713 69 124.765 69C124.817 69 124.87 69 124.922 69C124.974 69 125.026 69 125.078 69C125.13 69 125.182 69 125.234 69C125.286 69 125.338 69 125.389 69C125.441 69 125.493 69 125.544 69C125.596 69 125.647 69 125.699 69C125.75 69 125.802 69 125.853 69C125.904 69 125.956 69 126.007 69C126.058 69 126.109 69 126.16 69C126.211 69 126.262 69 126.313 69C126.364 69 126.415 69 126.465 69C126.516 69 126.567 69 126.617 69C126.668 69 126.719 69 126.769 69C126.819 69 126.87 69 126.92 69C126.97 69 127.021 69 127.071 69C127.121 69 127.171 69 127.221 69C127.271 69 127.321 69 127.371 69C127.421 69 127.471 69 127.52 69C127.57 69 127.62 69 127.669 69C127.719 69 127.768 69 127.817 69C127.867 69 127.916 69 127.965 69C128.015 69 128.064 69 128.113 69C128.162 69 128.211 69 128.26 69C128.309 69 128.358 69 128.406 69C128.455 69 128.504 69 128.552 69C128.601 69 128.65 69 128.698 69C128.746 69 128.795 69 128.843 69C128.891 69 128.94 69 128.988 69C129.036 69 129.084 69 129.132 69C129.18 69 129.228 69 129.275 69C129.323 69 129.371 69 129.418 69C129.466 69 129.514 69 129.561 69C129.609 69 129.656 69 129.703 69C129.75 69 129.798 69 129.845 69C129.892 69 129.939 69 129.986 69C130.033 69 130.08 69 130.126 69C130.173 69 130.22 69 130.266 69C130.313 69 130.36 69 130.406 69C130.452 69 130.499 69 130.545 69C130.591 69 130.637 69 130.683 69C130.729 69 130.775 69 130.821 69C130.867 69 130.913 69 130.959 69C131.004 69 131.05 69 131.096 69C131.141 69 131.187 69 131.232 69C131.277 69 131.323 69 131.368 69C131.413 69 131.458 69 131.503 69C131.548 69 131.593 69 131.638 69C131.682 69 131.727 69 131.772 69C131.816 69 131.861 69 131.905 69C131.95 69 131.994 69 132.038 69C132.083 69 132.127 69 132.171 69C132.215 69 132.259 69 132.303 69C132.346 69 132.39 69 132.434 69C132.478 69 132.521 69 132.565 69C132.608 69 132.651 69 132.695 69C132.738 69 132.781 69 132.824 69C132.867 69 132.91 69 132.953 69C132.996 69 133.039 69 133.082 69C133.124 69 133.167 69 133.209 69C133.252 69 133.294 69 133.337 69C133.379 69 133.421 69 133.463 69C133.505 69 133.547 69 133.589 69C133.631 69 133.673 69 133.715 69C133.756 69 133.798 69 133.839 69C133.881 69 133.922 69 133.964 69C134.005 69 134.046 69 134.087 69C134.128 69 134.169 69 134.21 69C134.251 69 134.292 69 134.333 69C134.373 69 134.414 69 134.454 69C134.495 69 134.535 69 134.575 69C134.616 69 134.656 69 134.696 69C134.736 69 134.776 69 134.816 69C134.855 69 134.895 69 134.935 69C134.974 69 135.014 69 135.053 69C135.093 69 135.132 69 135.171 69C135.21 69 135.249 69 135.288 69C135.327 69 135.366 69 135.405 69C135.444 69 135.482 69 135.521 69C135.56 69 135.598 69 135.636 69C135.675 69 135.713 69 135.751 69C135.789 69 135.827 69 135.865 69C135.903 69 135.941 69 135.978 69C136.016 69 136.053 69 136.091 69C136.128 69 136.166 69 136.203 69C136.24 69 136.277 69 136.314 69C136.351 69 136.388 69 136.425 69C136.461 69 136.498 69 136.535 69C136.571 69 136.608 69 136.644 69C136.68 69 136.716 69 136.752 69C136.788 69 136.824 69 136.86 69C136.896 69 136.932 69 136.967 69C137.003 69 137.039 69 137.074 69C137.109 69 137.144 69 137.18 69C137.215 69 137.25 69 137.285 69C137.32 69 137.354 69 137.389 69C137.424 69 137.458 69 137.493 69C137.527 69 137.561 69 137.596 69C137.63 69 137.664 69 137.698 69C137.732 69 137.766 69 137.799 69C137.833 69 137.867 69 137.9 69C137.933 69 137.967 69 138 69V65ZM64.5 65C64.2178 65 64.3243 64.944 64.5579 65.0921C64.8956 65.3061 65.0787 65.6707 65.1116 65.9662C65.1329 66.1578 65.0795 66.1993 65.1514 66.0043C65.2137 65.8354 65.3312 65.5935 65.5203 65.2777C66.3561 63.8824 67.6759 62.4322 68.6 61.2L65.4 58.8C64.8241 59.5678 63.05 61.6176 62.0888 63.2223C61.8287 63.6565 61.578 64.1333 61.3984 64.6207C61.2283 65.082 61.0592 65.7172 61.1362 66.4088C61.2248 67.2043 61.635 67.9751 62.4162 68.4704C63.0935 68.8998 63.8602 69 64.5 69V65Z" fill="url(#paint0_linear)" fill-opacity="0.68"/>
<defs>
<linearGradient id="paint0_linear" x1="148" y1="61" x2="-6.5" y2="62.5" gradientUnits="userSpaceOnUse">
<stop stop-color="#186BE7" stop-opacity="0"/>
<stop offset="0.0416667" stop-color="#1C73E8" stop-opacity="0"/>
<stop offset="0.3125" stop-color="#36A7F0"/>
<stop offset="0.53125" stop-color="#1874FD"/>
<stop offset="0.75" stop-color="#5CF5FD"/>
<stop offset="1" stop-color="#61FFFF"/>
</linearGradient>
</defs>
</svg>
