<svg width="282" height="81" viewBox="0 0 282 81" fill="none" xmlns="http://www.w3.org/2000/svg">
<path d="M188.616 56.808C188.806 57.192 188.901 57.6 188.901 58.032C188.901 58.752 188.616 59.352 188.044 59.832C187.52 60.312 186.876 60.552 186.114 60.552C184.923 60.552 184.089 59.976 183.613 58.824L178.538 47.16H151.594L146.448 58.824C145.972 59.976 145.138 60.552 143.947 60.552C143.184 60.552 142.517 60.312 141.946 59.832C141.374 59.304 141.088 58.68 141.088 57.96C141.088 57.576 141.183 57.192 141.374 56.808L161.814 11.016C162.1 10.344 162.529 9.84 163.101 9.504C163.672 9.168 164.292 9 164.959 9C165.674 9 166.317 9.192 166.889 9.576C167.46 9.912 167.889 10.392 168.175 11.016L188.616 56.808ZM153.738 42.264H176.394L165.03 16.416L153.738 42.264Z" fill="#F9F9F9"/>
<path d="M223.565 55.728C224.137 56.304 224.423 57 224.423 57.816C224.423 58.536 224.161 59.16 223.637 59.688C223.112 60.216 222.493 60.48 221.778 60.48C221.016 60.48 220.325 60.144 219.706 59.472L208.128 46.152L196.621 59.472C196.001 60.144 195.311 60.48 194.548 60.48C193.833 60.48 193.19 60.216 192.618 59.688C192.094 59.16 191.832 58.512 191.832 57.744C191.832 57.024 192.118 56.352 192.69 55.728L204.554 42.264L193.19 29.232C192.618 28.56 192.333 27.888 192.333 27.216C192.333 26.448 192.595 25.8 193.119 25.272C193.691 24.744 194.31 24.48 194.977 24.48C195.739 24.48 196.43 24.816 197.05 25.488L208.128 38.304L219.205 25.488C219.825 24.816 220.516 24.48 221.278 24.48C221.993 24.48 222.612 24.744 223.136 25.272C223.66 25.8 223.922 26.424 223.922 27.144C223.922 27.96 223.637 28.656 223.065 29.232L211.701 42.264L223.565 55.728Z" fill="#F9F9F9"/>
<path d="M258.215 52.056C258.739 52.056 259.192 52.272 259.573 52.704C259.954 53.136 260.144 53.688 260.144 54.36C260.144 55.56 259.311 56.664 257.643 57.672C255.928 58.68 254.117 59.448 252.211 59.976C250.305 60.456 248.447 60.696 246.637 60.696C241.253 60.696 236.988 59.088 233.843 55.872C230.746 52.656 229.198 48.216 229.198 42.552C229.198 38.952 229.889 35.784 231.27 33.048C232.652 30.264 234.582 28.104 237.06 26.568C239.585 25.032 242.444 24.264 245.636 24.264C250.162 24.264 253.76 25.752 256.428 28.728C259.096 31.704 260.43 35.736 260.43 40.824C260.43 41.784 260.24 42.48 259.859 42.912C259.477 43.344 258.858 43.56 258 43.56H234.987C235.416 51.816 239.299 55.944 246.637 55.944C248.495 55.944 250.091 55.704 251.425 55.224C252.759 54.696 254.189 54 255.713 53.136C256.952 52.416 257.786 52.056 258.215 52.056ZM245.707 28.8C242.658 28.8 240.204 29.76 238.346 31.68C236.535 33.6 235.463 36.312 235.13 39.816H255.356C255.261 36.264 254.379 33.552 252.712 31.68C251.044 29.76 248.709 28.8 245.707 28.8Z" fill="#F9F9F9"/>
<path d="M271.89 60.552C271.033 60.552 270.318 60.312 269.746 59.832C269.222 59.304 268.96 58.584 268.96 57.672V11.952C268.96 11.04 269.222 10.344 269.746 9.864C270.318 9.336 271.033 9.072 271.89 9.072C272.7 9.072 273.367 9.336 273.891 9.864C274.463 10.344 274.749 11.04 274.749 11.952V57.672C274.749 58.584 274.463 59.304 273.891 59.832C273.367 60.312 272.7 60.552 271.89 60.552Z" fill="#F9F9F9"/>
<path d="M140 62.192C138.895 62.192 138 63.0874 138 64.192C138 65.2966 138.895 66.192 140 66.192V62.192ZM206.6 69.392C207.263 68.5084 207.084 67.2548 206.2 66.592C205.316 65.9293 204.063 66.1084 203.4 66.992L206.6 69.392ZM140 66.192H276V62.192H140V66.192ZM276 66.192C276.195 66.192 276.551 66.2867 276.973 66.9661C277.397 67.649 277.702 68.6746 277.752 69.7828C277.803 70.9002 277.585 71.8565 277.231 72.4558C276.931 72.9644 276.573 73.192 276 73.192V77.192C278.177 77.192 279.757 76.0446 280.675 74.4907C281.54 73.0275 281.822 71.2338 281.748 69.6012C281.673 67.9594 281.228 66.235 280.371 64.8554C279.512 63.4723 278.055 62.192 276 62.192V66.192ZM276 73.192C275.967 73.192 275.933 73.192 275.9 73.192C275.867 73.192 275.833 73.192 275.799 73.192C275.766 73.192 275.732 73.192 275.698 73.192C275.664 73.192 275.63 73.192 275.596 73.192C275.561 73.192 275.527 73.192 275.493 73.192C275.458 73.192 275.424 73.192 275.389 73.192C275.354 73.192 275.32 73.192 275.285 73.192C275.25 73.192 275.215 73.192 275.18 73.192C275.144 73.192 275.109 73.192 275.074 73.192C275.039 73.192 275.003 73.192 274.967 73.192C274.932 73.192 274.896 73.192 274.86 73.192C274.824 73.192 274.788 73.192 274.752 73.192C274.716 73.192 274.68 73.192 274.644 73.192C274.608 73.192 274.571 73.192 274.535 73.192C274.498 73.192 274.461 73.192 274.425 73.192C274.388 73.192 274.351 73.192 274.314 73.192C274.277 73.192 274.24 73.192 274.203 73.192C274.166 73.192 274.128 73.192 274.091 73.192C274.053 73.192 274.016 73.192 273.978 73.192C273.941 73.192 273.903 73.192 273.865 73.192C273.827 73.192 273.789 73.192 273.751 73.192C273.713 73.192 273.675 73.192 273.636 73.192C273.598 73.192 273.56 73.192 273.521 73.192C273.482 73.192 273.444 73.192 273.405 73.192C273.366 73.192 273.327 73.192 273.288 73.192C273.249 73.192 273.21 73.192 273.171 73.192C273.132 73.192 273.093 73.192 273.053 73.192C273.014 73.192 272.974 73.192 272.935 73.192C272.895 73.192 272.855 73.192 272.816 73.192C272.776 73.192 272.736 73.192 272.696 73.192C272.656 73.192 272.616 73.192 272.575 73.192C272.535 73.192 272.495 73.192 272.454 73.192C272.414 73.192 272.373 73.192 272.333 73.192C272.292 73.192 272.251 73.192 272.21 73.192C272.169 73.192 272.128 73.192 272.087 73.192C272.046 73.192 272.005 73.192 271.964 73.192C271.922 73.192 271.881 73.192 271.839 73.192C271.798 73.192 271.756 73.192 271.715 73.192C271.673 73.192 271.631 73.192 271.589 73.192C271.547 73.192 271.505 73.192 271.463 73.192C271.421 73.192 271.379 73.192 271.337 73.192C271.294 73.192 271.252 73.192 271.209 73.192C271.167 73.192 271.124 73.192 271.082 73.192C271.039 73.192 270.996 73.192 270.953 73.192C270.91 73.192 270.867 73.192 270.824 73.192C270.781 73.192 270.738 73.192 270.695 73.192C270.651 73.192 270.608 73.192 270.565 73.192C270.521 73.192 270.478 73.192 270.434 73.192C270.39 73.192 270.346 73.192 270.303 73.192C270.259 73.192 270.215 73.192 270.171 73.192C270.127 73.192 270.083 73.192 270.038 73.192C269.994 73.192 269.95 73.192 269.905 73.192C269.861 73.192 269.816 73.192 269.772 73.192C269.727 73.192 269.682 73.192 269.638 73.192C269.593 73.192 269.548 73.192 269.503 73.192C269.458 73.192 269.413 73.192 269.368 73.192C269.323 73.192 269.277 73.192 269.232 73.192C269.187 73.192 269.141 73.192 269.096 73.192C269.05 73.192 269.004 73.192 268.959 73.192C268.913 73.192 268.867 73.192 268.821 73.192C268.775 73.192 268.729 73.192 268.683 73.192C268.637 73.192 268.591 73.192 268.545 73.192C268.499 73.192 268.452 73.192 268.406 73.192C268.36 73.192 268.313 73.192 268.266 73.192C268.22 73.192 268.173 73.192 268.126 73.192C268.08 73.192 268.033 73.192 267.986 73.192C267.939 73.192 267.892 73.192 267.845 73.192C267.798 73.192 267.75 73.192 267.703 73.192C267.656 73.192 267.609 73.192 267.561 73.192C267.514 73.192 267.466 73.192 267.418 73.192C267.371 73.192 267.323 73.192 267.275 73.192C267.228 73.192 267.18 73.192 267.132 73.192C267.084 73.192 267.036 73.192 266.988 73.192C266.94 73.192 266.891 73.192 266.843 73.192C266.795 73.192 266.746 73.192 266.698 73.192C266.65 73.192 266.601 73.192 266.552 73.192C266.504 73.192 266.455 73.192 266.406 73.192C266.358 73.192 266.309 73.192 266.26 73.192C266.211 73.192 266.162 73.192 266.113 73.192C266.064 73.192 266.015 73.192 265.965 73.192C265.916 73.192 265.867 73.192 265.817 73.192C265.768 73.192 265.719 73.192 265.669 73.192C265.62 73.192 265.57 73.192 265.52 73.192C265.471 73.192 265.421 73.192 265.371 73.192C265.321 73.192 265.271 73.192 265.221 73.192C265.171 73.192 265.121 73.192 265.071 73.192C265.021 73.192 264.97 73.192 264.92 73.192C264.87 73.192 264.819 73.192 264.769 73.192C264.719 73.192 264.668 73.192 264.617 73.192C264.567 73.192 264.516 73.192 264.465 73.192C264.415 73.192 264.364 73.192 264.313 73.192C264.262 73.192 264.211 73.192 264.16 73.192C264.109 73.192 264.058 73.192 264.007 73.192C263.956 73.192 263.904 73.192 263.853 73.192C263.802 73.192 263.75 73.192 263.699 73.192C263.647 73.192 263.596 73.192 263.544 73.192C263.493 73.192 263.441 73.192 263.389 73.192C263.338 73.192 263.286 73.192 263.234 73.192C263.182 73.192 263.13 73.192 263.078 73.192C263.026 73.192 262.974 73.192 262.922 73.192C262.87 73.192 262.817 73.192 262.765 73.192C262.713 73.192 262.661 73.192 262.608 73.192C262.556 73.192 262.503 73.192 262.451 73.192C262.398 73.192 262.346 73.192 262.293 73.192C262.24 73.192 262.187 73.192 262.135 73.192C262.082 73.192 262.029 73.192 261.976 73.192C261.923 73.192 261.87 73.192 261.817 73.192C261.764 73.192 261.711 73.192 261.658 73.192C261.604 73.192 261.551 73.192 261.498 73.192C261.445 73.192 261.391 73.192 261.338 73.192C261.284 73.192 261.231 73.192 261.177 73.192C261.124 73.192 261.07 73.192 261.016 73.192C260.963 73.192 260.909 73.192 260.855 73.192C260.801 73.192 260.748 73.192 260.694 73.192C260.64 73.192 260.586 73.192 260.532 73.192C260.478 73.192 260.424 73.192 260.369 73.192C260.315 73.192 260.261 73.192 260.207 73.192C260.152 73.192 260.098 73.192 260.044 73.192C259.989 73.192 259.935 73.192 259.88 73.192C259.826 73.192 259.771 73.192 259.717 73.192C259.662 73.192 259.607 73.192 259.553 73.192C259.498 73.192 259.443 73.192 259.388 73.192C259.333 73.192 259.279 73.192 259.224 73.192C259.169 73.192 259.114 73.192 259.059 73.192C259.004 73.192 258.948 73.192 258.893 73.192C258.838 73.192 258.783 73.192 258.728 73.192C258.672 73.192 258.617 73.192 258.562 73.192C258.506 73.192 258.451 73.192 258.395 73.192C258.34 73.192 258.284 73.192 258.229 73.192C258.173 73.192 258.118 73.192 258.062 73.192C258.006 73.192 257.95 73.192 257.895 73.192C257.839 73.192 257.783 73.192 257.727 73.192C257.671 73.192 257.615 73.192 257.559 73.192C257.503 73.192 257.447 73.192 257.391 73.192C257.335 73.192 257.279 73.192 257.223 73.192C257.167 73.192 257.11 73.192 257.054 73.192C256.998 73.192 256.941 73.192 256.885 73.192C256.829 73.192 256.772 73.192 256.716 73.192C256.659 73.192 256.603 73.192 256.546 73.192C256.49 73.192 256.433 73.192 256.376 73.192C256.32 73.192 256.263 73.192 256.206 73.192C256.15 73.192 256.093 73.192 256.036 73.192C255.979 73.192 255.922 73.192 255.865 73.192C255.808 73.192 255.751 73.192 255.694 73.192C255.637 73.192 255.58 73.192 255.523 73.192C255.466 73.192 255.409 73.192 255.352 73.192C255.295 73.192 255.238 73.192 255.18 73.192C255.123 73.192 255.066 73.192 255.008 73.192C254.951 73.192 254.894 73.192 254.836 73.192C254.779 73.192 254.721 73.192 254.664 73.192C254.606 73.192 254.549 73.192 254.491 73.192C254.434 73.192 254.376 73.192 254.318 73.192C254.261 73.192 254.203 73.192 254.145 73.192C254.087 73.192 254.03 73.192 253.972 73.192C253.914 73.192 253.856 73.192 253.798 73.192C253.74 73.192 253.683 73.192 253.625 73.192C253.567 73.192 253.509 73.192 253.451 73.192C253.393 73.192 253.334 73.192 253.276 73.192C253.218 73.192 253.16 73.192 253.102 73.192C253.044 73.192 252.986 73.192 252.927 73.192C252.869 73.192 252.811 73.192 252.752 73.192C252.694 73.192 252.636 73.192 252.577 73.192C252.519 73.192 252.461 73.192 252.402 73.192C252.344 73.192 252.285 73.192 252.227 73.192C252.168 73.192 252.11 73.192 252.051 73.192C251.992 73.192 251.934 73.192 251.875 73.192C251.817 73.192 251.758 73.192 251.699 73.192C251.641 73.192 251.582 73.192 251.523 73.192C251.464 73.192 251.405 73.192 251.347 73.192C251.288 73.192 251.229 73.192 251.17 73.192C251.111 73.192 251.052 73.192 250.993 73.192C250.934 73.192 250.875 73.192 250.816 73.192C250.757 73.192 250.698 73.192 250.639 73.192C250.58 73.192 250.521 73.192 250.462 73.192C250.403 73.192 250.344 73.192 250.285 73.192C250.226 73.192 250.166 73.192 250.107 73.192C250.048 73.192 249.989 73.192 249.93 73.192C249.87 73.192 249.811 73.192 249.752 73.192C249.692 73.192 249.633 73.192 249.574 73.192C249.514 73.192 249.455 73.192 249.396 73.192C249.336 73.192 249.277 73.192 249.217 73.192C249.158 73.192 249.098 73.192 249.039 73.192C248.979 73.192 248.92 73.192 248.86 73.192C248.801 73.192 248.741 73.192 248.682 73.192C248.622 73.192 248.562 73.192 248.503 73.192C248.443 73.192 248.383 73.192 248.324 73.192C248.264 73.192 248.204 73.192 248.145 73.192C248.085 73.192 248.025 73.192 247.966 73.192C247.906 73.192 247.846 73.192 247.786 73.192C247.726 73.192 247.667 73.192 247.607 73.192C247.547 73.192 247.487 73.192 247.427 73.192C247.368 73.192 247.308 73.192 247.248 73.192C247.188 73.192 247.128 73.192 247.068 73.192C247.008 73.192 246.948 73.192 246.888 73.192C246.828 73.192 246.768 73.192 246.708 73.192C246.648 73.192 246.588 73.192 246.528 73.192C246.468 73.192 246.408 73.192 246.348 73.192C246.288 73.192 246.228 73.192 246.168 73.192C246.108 73.192 246.048 73.192 245.988 73.192C245.928 73.192 245.868 73.192 245.807 73.192C245.747 73.192 245.687 73.192 245.627 73.192C245.567 73.192 245.507 73.192 245.447 73.192C245.386 73.192 245.326 73.192 245.266 73.192C245.206 73.192 245.146 73.192 245.085 73.192C245.025 73.192 244.965 73.192 244.905 73.192C244.844 73.192 244.784 73.192 244.724 73.192C244.664 73.192 244.603 73.192 244.543 73.192C244.483 73.192 244.423 73.192 244.362 73.192C244.302 73.192 244.242 73.192 244.181 73.192C244.121 73.192 244.061 73.192 244 73.192C243.94 73.192 243.88 73.192 243.819 73.192C243.759 73.192 243.699 73.192 243.638 73.192C243.578 73.192 243.518 73.192 243.457 73.192C243.397 73.192 243.337 73.192 243.276 73.192C243.216 73.192 243.156 73.192 243.095 73.192C243.035 73.192 242.974 73.192 242.914 73.192C242.854 73.192 242.793 73.192 242.733 73.192C242.672 73.192 242.612 73.192 242.552 73.192C242.491 73.192 242.431 73.192 242.37 73.192C242.31 73.192 242.25 73.192 242.189 73.192C242.129 73.192 242.068 73.192 242.008 73.192C241.948 73.192 241.887 73.192 241.827 73.192C241.766 73.192 241.706 73.192 241.646 73.192C241.585 73.192 241.525 73.192 241.464 73.192C241.404 73.192 241.344 73.192 241.283 73.192C241.223 73.192 241.162 73.192 241.102 73.192C241.041 73.192 240.981 73.192 240.921 73.192C240.86 73.192 240.8 73.192 240.739 73.192C240.679 73.192 240.619 73.192 240.558 73.192C240.498 73.192 240.438 73.192 240.377 73.192C240.317 73.192 240.256 73.192 240.196 73.192C240.136 73.192 240.075 73.192 240.015 73.192C239.955 73.192 239.894 73.192 239.834 73.192C239.773 73.192 239.713 73.192 239.653 73.192C239.592 73.192 239.532 73.192 239.472 73.192C239.411 73.192 239.351 73.192 239.291 73.192C239.23 73.192 239.17 73.192 239.11 73.192C239.05 73.192 238.989 73.192 238.929 73.192C238.869 73.192 238.808 73.192 238.748 73.192C238.688 73.192 238.628 73.192 238.567 73.192C238.507 73.192 238.447 73.192 238.387 73.192C238.326 73.192 238.266 73.192 238.206 73.192C238.146 73.192 238.086 73.192 238.025 73.192C237.965 73.192 237.905 73.192 237.845 73.192C237.785 73.192 237.724 73.192 237.664 73.192C237.604 73.192 237.544 73.192 237.484 73.192C237.424 73.192 237.364 73.192 237.304 73.192C237.244 73.192 237.183 73.192 237.123 73.192C237.063 73.192 237.003 73.192 236.943 73.192C236.883 73.192 236.823 73.192 236.763 73.192C236.703 73.192 236.643 73.192 236.583 73.192C236.523 73.192 236.463 73.192 236.403 73.192C236.343 73.192 236.283 73.192 236.224 73.192C236.164 73.192 236.104 73.192 236.044 73.192C235.984 73.192 235.924 73.192 235.864 73.192C235.804 73.192 235.745 73.192 235.685 73.192C235.625 73.192 235.565 73.192 235.505 73.192C235.446 73.192 235.386 73.192 235.326 73.192C235.266 73.192 235.207 73.192 235.147 73.192C235.087 73.192 235.028 73.192 234.968 73.192C234.908 73.192 234.849 73.192 234.789 73.192C234.729 73.192 234.67 73.192 234.61 73.192C234.551 73.192 234.491 73.192 234.432 73.192C234.372 73.192 234.313 73.192 234.253 73.192C234.194 73.192 234.134 73.192 234.075 73.192C234.015 73.192 233.956 73.192 233.896 73.192C233.837 73.192 233.778 73.192 233.718 73.192C233.659 73.192 233.6 73.192 233.54 73.192C233.481 73.192 233.422 73.192 233.363 73.192C233.303 73.192 233.244 73.192 233.185 73.192C233.126 73.192 233.066 73.192 233.007 73.192C232.948 73.192 232.889 73.192 232.83 73.192C232.771 73.192 232.712 73.192 232.653 73.192C232.594 73.192 232.535 73.192 232.476 73.192C232.417 73.192 232.358 73.192 232.299 73.192C232.24 73.192 232.181 73.192 232.122 73.192C232.063 73.192 232.005 73.192 231.946 73.192C231.887 73.192 231.828 73.192 231.769 73.192C231.711 73.192 231.652 73.192 231.593 73.192C231.535 73.192 231.476 73.192 231.417 73.192C231.359 73.192 231.3 73.192 231.241 73.192C231.183 73.192 231.124 73.192 231.066 73.192C231.007 73.192 230.949 73.192 230.89 73.192C230.832 73.192 230.774 73.192 230.715 73.192C230.657 73.192 230.599 73.192 230.54 73.192C230.482 73.192 230.424 73.192 230.366 73.192C230.307 73.192 230.249 73.192 230.191 73.192C230.133 73.192 230.075 73.192 230.017 73.192C229.958 73.192 229.9 73.192 229.842 73.192C229.784 73.192 229.726 73.192 229.668 73.192C229.61 73.192 229.553 73.192 229.495 73.192C229.437 73.192 229.379 73.192 229.321 73.192C229.263 73.192 229.206 73.192 229.148 73.192C229.09 73.192 229.033 73.192 228.975 73.192C228.917 73.192 228.86 73.192 228.802 73.192C228.745 73.192 228.687 73.192 228.63 73.192C228.572 73.192 228.515 73.192 228.457 73.192C228.4 73.192 228.342 73.192 228.285 73.192C228.228 73.192 228.17 73.192 228.113 73.192C228.056 73.192 227.999 73.192 227.942 73.192C227.885 73.192 227.827 73.192 227.77 73.192C227.713 73.192 227.656 73.192 227.599 73.192C227.542 73.192 227.485 73.192 227.428 73.192C227.372 73.192 227.315 73.192 227.258 73.192C227.201 73.192 227.144 73.192 227.088 73.192C227.031 73.192 226.974 73.192 226.918 73.192C226.861 73.192 226.804 73.192 226.748 73.192C226.691 73.192 226.635 73.192 226.578 73.192C226.522 73.192 226.465 73.192 226.409 73.192C226.353 73.192 226.296 73.192 226.24 73.192C226.184 73.192 226.128 73.192 226.072 73.192C226.015 73.192 225.959 73.192 225.903 73.192C225.847 73.192 225.791 73.192 225.735 73.192C225.679 73.192 225.623 73.192 225.567 73.192C225.512 73.192 225.456 73.192 225.4 73.192C225.344 73.192 225.289 73.192 225.233 73.192C225.177 73.192 225.122 73.192 225.066 73.192C225.01 73.192 224.955 73.192 224.9 73.192C224.844 73.192 224.789 73.192 224.733 73.192C224.678 73.192 224.623 73.192 224.567 73.192C224.512 73.192 224.457 73.192 224.402 73.192C224.347 73.192 224.292 73.192 224.237 73.192C224.182 73.192 224.127 73.192 224.072 73.192C224.017 73.192 223.962 73.192 223.907 73.192C223.852 73.192 223.797 73.192 223.743 73.192C223.688 73.192 223.633 73.192 223.579 73.192C223.524 73.192 223.47 73.192 223.415 73.192C223.361 73.192 223.306 73.192 223.252 73.192C223.198 73.192 223.143 73.192 223.089 73.192C223.035 73.192 222.981 73.192 222.926 73.192C222.872 73.192 222.818 73.192 222.764 73.192C222.71 73.192 222.656 73.192 222.602 73.192C222.549 73.192 222.495 73.192 222.441 73.192C222.387 73.192 222.333 73.192 222.28 73.192C222.226 73.192 222.173 73.192 222.119 73.192C222.065 73.192 222.012 73.192 221.959 73.192C221.905 73.192 221.852 73.192 221.799 73.192C221.745 73.192 221.692 73.192 221.639 73.192C221.586 73.192 221.533 73.192 221.48 73.192C221.427 73.192 221.374 73.192 221.321 73.192C221.268 73.192 221.215 73.192 221.162 73.192C221.109 73.192 221.057 73.192 221.004 73.192C220.951 73.192 220.899 73.192 220.846 73.192C220.794 73.192 220.741 73.192 220.689 73.192C220.637 73.192 220.584 73.192 220.532 73.192C220.48 73.192 220.428 73.192 220.376 73.192C220.323 73.192 220.271 73.192 220.219 73.192C220.167 73.192 220.116 73.192 220.064 73.192C220.012 73.192 219.96 73.192 219.908 73.192C219.857 73.192 219.805 73.192 219.753 73.192C219.702 73.192 219.65 73.192 219.599 73.192C219.548 73.192 219.496 73.192 219.445 73.192C219.394 73.192 219.342 73.192 219.291 73.192C219.24 73.192 219.189 73.192 219.138 73.192C219.087 73.192 219.036 73.192 218.985 73.192C218.934 73.192 218.884 73.192 218.833 73.192C218.782 73.192 218.732 73.192 218.681 73.192C218.63 73.192 218.58 73.192 218.53 73.192C218.479 73.192 218.429 73.192 218.379 73.192C218.328 73.192 218.278 73.192 218.228 73.192C218.178 73.192 218.128 73.192 218.078 73.192C218.028 73.192 217.978 73.192 217.928 73.192C217.878 73.192 217.829 73.192 217.779 73.192C217.729 73.192 217.68 73.192 217.63 73.192C217.581 73.192 217.531 73.192 217.482 73.192C217.433 73.192 217.383 73.192 217.334 73.192C217.285 73.192 217.236 73.192 217.187 73.192C217.138 73.192 217.089 73.192 217.04 73.192C216.991 73.192 216.942 73.192 216.893 73.192C216.845 73.192 216.796 73.192 216.748 73.192C216.699 73.192 216.65 73.192 216.602 73.192C216.554 73.192 216.505 73.192 216.457 73.192C216.409 73.192 216.361 73.192 216.313 73.192C216.265 73.192 216.217 73.192 216.169 73.192C216.121 73.192 216.073 73.192 216.025 73.192C215.977 73.192 215.93 73.192 215.882 73.192C215.835 73.192 215.787 73.192 215.74 73.192C215.692 73.192 215.645 73.192 215.598 73.192C215.551 73.192 215.503 73.192 215.456 73.192C215.409 73.192 215.362 73.192 215.315 73.192C215.268 73.192 215.222 73.192 215.175 73.192C215.128 73.192 215.082 73.192 215.035 73.192C214.988 73.192 214.942 73.192 214.896 73.192C214.849 73.192 214.803 73.192 214.757 73.192C214.711 73.192 214.664 73.192 214.618 73.192C214.572 73.192 214.526 73.192 214.481 73.192C214.435 73.192 214.389 73.192 214.343 73.192C214.298 73.192 214.252 73.192 214.207 73.192C214.161 73.192 214.116 73.192 214.07 73.192C214.025 73.192 213.98 73.192 213.935 73.192C213.89 73.192 213.845 73.192 213.8 73.192C213.755 73.192 213.71 73.192 213.665 73.192C213.62 73.192 213.576 73.192 213.531 73.192C213.487 73.192 213.442 73.192 213.398 73.192C213.353 73.192 213.309 73.192 213.265 73.192C213.221 73.192 213.177 73.192 213.133 73.192C213.089 73.192 213.045 73.192 213.001 73.192C212.957 73.192 212.913 73.192 212.87 73.192C212.826 73.192 212.783 73.192 212.739 73.192C212.696 73.192 212.652 73.192 212.609 73.192C212.566 73.192 212.523 73.192 212.48 73.192C212.437 73.192 212.394 73.192 212.351 73.192C212.308 73.192 212.265 73.192 212.223 73.192C212.18 73.192 212.138 73.192 212.095 73.192C212.053 73.192 212.01 73.192 211.968 73.192C211.926 73.192 211.884 73.192 211.842 73.192C211.799 73.192 211.758 73.192 211.716 73.192C211.674 73.192 211.632 73.192 211.59 73.192C211.549 73.192 211.507 73.192 211.466 73.192C211.424 73.192 211.383 73.192 211.342 73.192C211.301 73.192 211.259 73.192 211.218 73.192C211.177 73.192 211.136 73.192 211.096 73.192C211.055 73.192 211.014 73.192 210.973 73.192C210.933 73.192 210.892 73.192 210.852 73.192C210.811 73.192 210.771 73.192 210.731 73.192C210.691 73.192 210.651 73.192 210.611 73.192C210.571 73.192 210.531 73.192 210.491 73.192C210.451 73.192 210.411 73.192 210.372 73.192C210.332 73.192 210.293 73.192 210.254 73.192C210.214 73.192 210.175 73.192 210.136 73.192C210.097 73.192 210.058 73.192 210.019 73.192C209.98 73.192 209.941 73.192 209.902 73.192C209.864 73.192 209.825 73.192 209.786 73.192C209.748 73.192 209.71 73.192 209.671 73.192C209.633 73.192 209.595 73.192 209.557 73.192C209.519 73.192 209.481 73.192 209.443 73.192C209.405 73.192 209.368 73.192 209.33 73.192C209.292 73.192 209.255 73.192 209.217 73.192C209.18 73.192 209.143 73.192 209.106 73.192C209.068 73.192 209.031 73.192 208.995 73.192C208.958 73.192 208.921 73.192 208.884 73.192C208.847 73.192 208.811 73.192 208.774 73.192C208.738 73.192 208.702 73.192 208.665 73.192C208.629 73.192 208.593 73.192 208.557 73.192C208.521 73.192 208.485 73.192 208.449 73.192C208.413 73.192 208.378 73.192 208.342 73.192C208.307 73.192 208.271 73.192 208.236 73.192C208.201 73.192 208.165 73.192 208.13 73.192C208.095 73.192 208.06 73.192 208.025 73.192C207.991 73.192 207.956 73.192 207.921 73.192C207.887 73.192 207.852 73.192 207.818 73.192C207.784 73.192 207.749 73.192 207.715 73.192C207.681 73.192 207.647 73.192 207.613 73.192C207.579 73.192 207.545 73.192 207.512 73.192C207.478 73.192 207.445 73.192 207.411 73.192C207.378 73.192 207.345 73.192 207.311 73.192C207.278 73.192 207.245 73.192 207.212 73.192C207.179 73.192 207.147 73.192 207.114 73.192C207.081 73.192 207.049 73.192 207.016 73.192C206.984 73.192 206.952 73.192 206.919 73.192C206.887 73.192 206.855 73.192 206.823 73.192C206.791 73.192 206.76 73.192 206.728 73.192C206.696 73.192 206.665 73.192 206.633 73.192C206.602 73.192 206.571 73.192 206.539 73.192C206.508 73.192 206.477 73.192 206.446 73.192C206.415 73.192 206.385 73.192 206.354 73.192C206.323 73.192 206.293 73.192 206.262 73.192C206.232 73.192 206.202 73.192 206.171 73.192C206.141 73.192 206.111 73.192 206.081 73.192C206.052 73.192 206.022 73.192 205.992 73.192C205.963 73.192 205.933 73.192 205.904 73.192C205.874 73.192 205.845 73.192 205.816 73.192C205.787 73.192 205.758 73.192 205.729 73.192C205.7 73.192 205.671 73.192 205.643 73.192C205.614 73.192 205.586 73.192 205.558 73.192C205.529 73.192 205.501 73.192 205.473 73.192C205.445 73.192 205.417 73.192 205.389 73.192C205.361 73.192 205.334 73.192 205.306 73.192C205.279 73.192 205.251 73.192 205.224 73.192C205.197 73.192 205.17 73.192 205.143 73.192C205.116 73.192 205.089 73.192 205.062 73.192C205.036 73.192 205.009 73.192 204.983 73.192C204.956 73.192 204.93 73.192 204.904 73.192C204.877 73.192 204.851 73.192 204.826 73.192C204.8 73.192 204.774 73.192 204.748 73.192C204.723 73.192 204.697 73.192 204.672 73.192C204.647 73.192 204.621 73.192 204.596 73.192C204.571 73.192 204.546 73.192 204.522 73.192C204.497 73.192 204.472 73.192 204.448 73.192C204.423 73.192 204.399 73.192 204.375 73.192C204.35 73.192 204.326 73.192 204.302 73.192C204.278 73.192 204.255 73.192 204.231 73.192C204.207 73.192 204.184 73.192 204.16 73.192C204.137 73.192 204.114 73.192 204.091 73.192C204.068 73.192 204.045 73.192 204.022 73.192C203.999 73.192 203.976 73.192 203.954 73.192C203.931 73.192 203.909 73.192 203.887 73.192C203.865 73.192 203.843 73.192 203.821 73.192C203.799 73.192 203.777 73.192 203.755 73.192C203.734 73.192 203.712 73.192 203.691 73.192C203.669 73.192 203.648 73.192 203.627 73.192C203.606 73.192 203.585 73.192 203.564 73.192C203.544 73.192 203.523 73.192 203.503 73.192C203.482 73.192 203.462 73.192 203.442 73.192C203.422 73.192 203.401 73.192 203.382 73.192C203.362 73.192 203.342 73.192 203.322 73.192C203.303 73.192 203.283 73.192 203.264 73.192C203.245 73.192 203.226 73.192 203.207 73.192C203.188 73.192 203.169 73.192 203.15 73.192C203.132 73.192 203.113 73.192 203.095 73.192C203.076 73.192 203.058 73.192 203.04 73.192C203.022 73.192 203.004 73.192 202.986 73.192C202.969 73.192 202.951 73.192 202.934 73.192C202.916 73.192 202.899 73.192 202.882 73.192C202.865 73.192 202.848 73.192 202.831 73.192C202.814 73.192 202.797 73.192 202.781 73.192C202.764 73.192 202.748 73.192 202.732 73.192C202.715 73.192 202.699 73.192 202.683 73.192C202.667 73.192 202.652 73.192 202.636 73.192C202.621 73.192 202.605 73.192 202.59 73.192C202.575 73.192 202.559 73.192 202.544 73.192C202.529 73.192 202.515 73.192 202.5 73.192V77.192C202.515 77.192 202.529 77.192 202.544 77.192C202.559 77.192 202.575 77.192 202.59 77.192C202.605 77.192 202.621 77.192 202.636 77.192C202.652 77.192 202.667 77.192 202.683 77.192C202.699 77.192 202.715 77.192 202.732 77.192C202.748 77.192 202.764 77.192 202.781 77.192C202.797 77.192 202.814 77.192 202.831 77.192C202.848 77.192 202.865 77.192 202.882 77.192C202.899 77.192 202.916 77.192 202.934 77.192C202.951 77.192 202.969 77.192 202.986 77.192C203.004 77.192 203.022 77.192 203.04 77.192C203.058 77.192 203.076 77.192 203.095 77.192C203.113 77.192 203.132 77.192 203.15 77.192C203.169 77.192 203.188 77.192 203.207 77.192C203.226 77.192 203.245 77.192 203.264 77.192C203.283 77.192 203.303 77.192 203.322 77.192C203.342 77.192 203.362 77.192 203.382 77.192C203.401 77.192 203.422 77.192 203.442 77.192C203.462 77.192 203.482 77.192 203.503 77.192C203.523 77.192 203.544 77.192 203.564 77.192C203.585 77.192 203.606 77.192 203.627 77.192C203.648 77.192 203.669 77.192 203.691 77.192C203.712 77.192 203.734 77.192 203.755 77.192C203.777 77.192 203.799 77.192 203.821 77.192C203.843 77.192 203.865 77.192 203.887 77.192C203.909 77.192 203.931 77.192 203.954 77.192C203.976 77.192 203.999 77.192 204.022 77.192C204.045 77.192 204.068 77.192 204.091 77.192C204.114 77.192 204.137 77.192 204.16 77.192C204.184 77.192 204.207 77.192 204.231 77.192C204.255 77.192 204.278 77.192 204.302 77.192C204.326 77.192 204.35 77.192 204.375 77.192C204.399 77.192 204.423 77.192 204.448 77.192C204.472 77.192 204.497 77.192 204.522 77.192C204.546 77.192 204.571 77.192 204.596 77.192C204.621 77.192 204.647 77.192 204.672 77.192C204.697 77.192 204.723 77.192 204.748 77.192C204.774 77.192 204.8 77.192 204.826 77.192C204.851 77.192 204.877 77.192 204.904 77.192C204.93 77.192 204.956 77.192 204.983 77.192C205.009 77.192 205.036 77.192 205.062 77.192C205.089 77.192 205.116 77.192 205.143 77.192C205.17 77.192 205.197 77.192 205.224 77.192C205.251 77.192 205.279 77.192 205.306 77.192C205.334 77.192 205.361 77.192 205.389 77.192C205.417 77.192 205.445 77.192 205.473 77.192C205.501 77.192 205.529 77.192 205.558 77.192C205.586 77.192 205.614 77.192 205.643 77.192C205.671 77.192 205.7 77.192 205.729 77.192C205.758 77.192 205.787 77.192 205.816 77.192C205.845 77.192 205.874 77.192 205.904 77.192C205.933 77.192 205.963 77.192 205.992 77.192C206.022 77.192 206.052 77.192 206.081 77.192C206.111 77.192 206.141 77.192 206.171 77.192C206.202 77.192 206.232 77.192 206.262 77.192C206.293 77.192 206.323 77.192 206.354 77.192C206.385 77.192 206.415 77.192 206.446 77.192C206.477 77.192 206.508 77.192 206.539 77.192C206.571 77.192 206.602 77.192 206.633 77.192C206.665 77.192 206.696 77.192 206.728 77.192C206.76 77.192 206.791 77.192 206.823 77.192C206.855 77.192 206.887 77.192 206.919 77.192C206.952 77.192 206.984 77.192 207.016 77.192C207.049 77.192 207.081 77.192 207.114 77.192C207.147 77.192 207.179 77.192 207.212 77.192C207.245 77.192 207.278 77.192 207.311 77.192C207.345 77.192 207.378 77.192 207.411 77.192C207.445 77.192 207.478 77.192 207.512 77.192C207.545 77.192 207.579 77.192 207.613 77.192C207.647 77.192 207.681 77.192 207.715 77.192C207.749 77.192 207.784 77.192 207.818 77.192C207.852 77.192 207.887 77.192 207.921 77.192C207.956 77.192 207.991 77.192 208.025 77.192C208.06 77.192 208.095 77.192 208.13 77.192C208.165 77.192 208.201 77.192 208.236 77.192C208.271 77.192 208.307 77.192 208.342 77.192C208.378 77.192 208.413 77.192 208.449 77.192C208.485 77.192 208.521 77.192 208.557 77.192C208.593 77.192 208.629 77.192 208.665 77.192C208.702 77.192 208.738 77.192 208.774 77.192C208.811 77.192 208.847 77.192 208.884 77.192C208.921 77.192 208.958 77.192 208.995 77.192C209.031 77.192 209.068 77.192 209.106 77.192C209.143 77.192 209.18 77.192 209.217 77.192C209.255 77.192 209.292 77.192 209.33 77.192C209.368 77.192 209.405 77.192 209.443 77.192C209.481 77.192 209.519 77.192 209.557 77.192C209.595 77.192 209.633 77.192 209.671 77.192C209.71 77.192 209.748 77.192 209.786 77.192C209.825 77.192 209.864 77.192 209.902 77.192C209.941 77.192 209.98 77.192 210.019 77.192C210.058 77.192 210.097 77.192 210.136 77.192C210.175 77.192 210.214 77.192 210.254 77.192C210.293 77.192 210.332 77.192 210.372 77.192C210.411 77.192 210.451 77.192 210.491 77.192C210.531 77.192 210.571 77.192 210.611 77.192C210.651 77.192 210.691 77.192 210.731 77.192C210.771 77.192 210.811 77.192 210.852 77.192C210.892 77.192 210.933 77.192 210.973 77.192C211.014 77.192 211.055 77.192 211.096 77.192C211.136 77.192 211.177 77.192 211.218 77.192C211.259 77.192 211.301 77.192 211.342 77.192C211.383 77.192 211.424 77.192 211.466 77.192C211.507 77.192 211.549 77.192 211.59 77.192C211.632 77.192 211.674 77.192 211.716 77.192C211.758 77.192 211.799 77.192 211.842 77.192C211.884 77.192 211.926 77.192 211.968 77.192C212.01 77.192 212.053 77.192 212.095 77.192C212.138 77.192 212.18 77.192 212.223 77.192C212.265 77.192 212.308 77.192 212.351 77.192C212.394 77.192 212.437 77.192 212.48 77.192C212.523 77.192 212.566 77.192 212.609 77.192C212.652 77.192 212.696 77.192 212.739 77.192C212.783 77.192 212.826 77.192 212.87 77.192C212.913 77.192 212.957 77.192 213.001 77.192C213.045 77.192 213.089 77.192 213.133 77.192C213.177 77.192 213.221 77.192 213.265 77.192C213.309 77.192 213.353 77.192 213.398 77.192C213.442 77.192 213.487 77.192 213.531 77.192C213.576 77.192 213.62 77.192 213.665 77.192C213.71 77.192 213.755 77.192 213.8 77.192C213.845 77.192 213.89 77.192 213.935 77.192C213.98 77.192 214.025 77.192 214.07 77.192C214.116 77.192 214.161 77.192 214.207 77.192C214.252 77.192 214.298 77.192 214.343 77.192C214.389 77.192 214.435 77.192 214.481 77.192C214.526 77.192 214.572 77.192 214.618 77.192C214.664 77.192 214.711 77.192 214.757 77.192C214.803 77.192 214.849 77.192 214.896 77.192C214.942 77.192 214.988 77.192 215.035 77.192C215.082 77.192 215.128 77.192 215.175 77.192C215.222 77.192 215.268 77.192 215.315 77.192C215.362 77.192 215.409 77.192 215.456 77.192C215.503 77.192 215.551 77.192 215.598 77.192C215.645 77.192 215.692 77.192 215.74 77.192C215.787 77.192 215.835 77.192 215.882 77.192C215.93 77.192 215.977 77.192 216.025 77.192C216.073 77.192 216.121 77.192 216.169 77.192C216.217 77.192 216.265 77.192 216.313 77.192C216.361 77.192 216.409 77.192 216.457 77.192C216.505 77.192 216.554 77.192 216.602 77.192C216.65 77.192 216.699 77.192 216.748 77.192C216.796 77.192 216.845 77.192 216.893 77.192C216.942 77.192 216.991 77.192 217.04 77.192C217.089 77.192 217.138 77.192 217.187 77.192C217.236 77.192 217.285 77.192 217.334 77.192C217.383 77.192 217.433 77.192 217.482 77.192C217.531 77.192 217.581 77.192 217.63 77.192C217.68 77.192 217.729 77.192 217.779 77.192C217.829 77.192 217.878 77.192 217.928 77.192C217.978 77.192 218.028 77.192 218.078 77.192C218.128 77.192 218.178 77.192 218.228 77.192C218.278 77.192 218.328 77.192 218.379 77.192C218.429 77.192 218.479 77.192 218.53 77.192C218.58 77.192 218.63 77.192 218.681 77.192C218.732 77.192 218.782 77.192 218.833 77.192C218.884 77.192 218.934 77.192 218.985 77.192C219.036 77.192 219.087 77.192 219.138 77.192C219.189 77.192 219.24 77.192 219.291 77.192C219.342 77.192 219.394 77.192 219.445 77.192C219.496 77.192 219.548 77.192 219.599 77.192C219.65 77.192 219.702 77.192 219.753 77.192C219.805 77.192 219.857 77.192 219.908 77.192C219.96 77.192 220.012 77.192 220.064 77.192C220.116 77.192 220.167 77.192 220.219 77.192C220.271 77.192 220.323 77.192 220.376 77.192C220.428 77.192 220.48 77.192 220.532 77.192C220.584 77.192 220.637 77.192 220.689 77.192C220.741 77.192 220.794 77.192 220.846 77.192C220.899 77.192 220.951 77.192 221.004 77.192C221.057 77.192 221.109 77.192 221.162 77.192C221.215 77.192 221.268 77.192 221.321 77.192C221.374 77.192 221.427 77.192 221.48 77.192C221.533 77.192 221.586 77.192 221.639 77.192C221.692 77.192 221.745 77.192 221.799 77.192C221.852 77.192 221.905 77.192 221.959 77.192C222.012 77.192 222.065 77.192 222.119 77.192C222.173 77.192 222.226 77.192 222.28 77.192C222.333 77.192 222.387 77.192 222.441 77.192C222.495 77.192 222.549 77.192 222.602 77.192C222.656 77.192 222.71 77.192 222.764 77.192C222.818 77.192 222.872 77.192 222.926 77.192C222.981 77.192 223.035 77.192 223.089 77.192C223.143 77.192 223.198 77.192 223.252 77.192C223.306 77.192 223.361 77.192 223.415 77.192C223.47 77.192 223.524 77.192 223.579 77.192C223.633 77.192 223.688 77.192 223.743 77.192C223.797 77.192 223.852 77.192 223.907 77.192C223.962 77.192 224.017 77.192 224.072 77.192C224.127 77.192 224.182 77.192 224.237 77.192C224.292 77.192 224.347 77.192 224.402 77.192C224.457 77.192 224.512 77.192 224.567 77.192C224.623 77.192 224.678 77.192 224.733 77.192C224.789 77.192 224.844 77.192 224.9 77.192C224.955 77.192 225.01 77.192 225.066 77.192C225.122 77.192 225.177 77.192 225.233 77.192C225.289 77.192 225.344 77.192 225.4 77.192C225.456 77.192 225.512 77.192 225.567 77.192C225.623 77.192 225.679 77.192 225.735 77.192C225.791 77.192 225.847 77.192 225.903 77.192C225.959 77.192 226.015 77.192 226.072 77.192C226.128 77.192 226.184 77.192 226.24 77.192C226.296 77.192 226.353 77.192 226.409 77.192C226.465 77.192 226.522 77.192 226.578 77.192C226.635 77.192 226.691 77.192 226.748 77.192C226.804 77.192 226.861 77.192 226.918 77.192C226.974 77.192 227.031 77.192 227.088 77.192C227.144 77.192 227.201 77.192 227.258 77.192C227.315 77.192 227.372 77.192 227.428 77.192C227.485 77.192 227.542 77.192 227.599 77.192C227.656 77.192 227.713 77.192 227.77 77.192C227.827 77.192 227.885 77.192 227.942 77.192C227.999 77.192 228.056 77.192 228.113 77.192C228.17 77.192 228.228 77.192 228.285 77.192C228.342 77.192 228.4 77.192 228.457 77.192C228.515 77.192 228.572 77.192 228.63 77.192C228.687 77.192 228.745 77.192 228.802 77.192C228.86 77.192 228.917 77.192 228.975 77.192C229.033 77.192 229.09 77.192 229.148 77.192C229.206 77.192 229.263 77.192 229.321 77.192C229.379 77.192 229.437 77.192 229.495 77.192C229.553 77.192 229.61 77.192 229.668 77.192C229.726 77.192 229.784 77.192 229.842 77.192C229.9 77.192 229.958 77.192 230.017 77.192C230.075 77.192 230.133 77.192 230.191 77.192C230.249 77.192 230.307 77.192 230.366 77.192C230.424 77.192 230.482 77.192 230.54 77.192C230.599 77.192 230.657 77.192 230.715 77.192C230.774 77.192 230.832 77.192 230.89 77.192C230.949 77.192 231.007 77.192 231.066 77.192C231.124 77.192 231.183 77.192 231.241 77.192C231.3 77.192 231.359 77.192 231.417 77.192C231.476 77.192 231.535 77.192 231.593 77.192C231.652 77.192 231.711 77.192 231.769 77.192C231.828 77.192 231.887 77.192 231.946 77.192C232.005 77.192 232.063 77.192 232.122 77.192C232.181 77.192 232.24 77.192 232.299 77.192C232.358 77.192 232.417 77.192 232.476 77.192C232.535 77.192 232.594 77.192 232.653 77.192C232.712 77.192 232.771 77.192 232.83 77.192C232.889 77.192 232.948 77.192 233.007 77.192C233.066 77.192 233.126 77.192 233.185 77.192C233.244 77.192 233.303 77.192 233.363 77.192C233.422 77.192 233.481 77.192 233.54 77.192C233.6 77.192 233.659 77.192 233.718 77.192C233.778 77.192 233.837 77.192 233.896 77.192C233.956 77.192 234.015 77.192 234.075 77.192C234.134 77.192 234.194 77.192 234.253 77.192C234.313 77.192 234.372 77.192 234.432 77.192C234.491 77.192 234.551 77.192 234.61 77.192C234.67 77.192 234.729 77.192 234.789 77.192C234.849 77.192 234.908 77.192 234.968 77.192C235.028 77.192 235.087 77.192 235.147 77.192C235.207 77.192 235.266 77.192 235.326 77.192C235.386 77.192 235.446 77.192 235.505 77.192C235.565 77.192 235.625 77.192 235.685 77.192C235.745 77.192 235.804 77.192 235.864 77.192C235.924 77.192 235.984 77.192 236.044 77.192C236.104 77.192 236.164 77.192 236.224 77.192C236.283 77.192 236.343 77.192 236.403 77.192C236.463 77.192 236.523 77.192 236.583 77.192C236.643 77.192 236.703 77.192 236.763 77.192C236.823 77.192 236.883 77.192 236.943 77.192C237.003 77.192 237.063 77.192 237.123 77.192C237.183 77.192 237.244 77.192 237.304 77.192C237.364 77.192 237.424 77.192 237.484 77.192C237.544 77.192 237.604 77.192 237.664 77.192C237.724 77.192 237.785 77.192 237.845 77.192C237.905 77.192 237.965 77.192 238.025 77.192C238.086 77.192 238.146 77.192 238.206 77.192C238.266 77.192 238.326 77.192 238.387 77.192C238.447 77.192 238.507 77.192 238.567 77.192C238.628 77.192 238.688 77.192 238.748 77.192C238.808 77.192 238.869 77.192 238.929 77.192C238.989 77.192 239.05 77.192 239.11 77.192C239.17 77.192 239.23 77.192 239.291 77.192C239.351 77.192 239.411 77.192 239.472 77.192C239.532 77.192 239.592 77.192 239.653 77.192C239.713 77.192 239.773 77.192 239.834 77.192C239.894 77.192 239.955 77.192 240.015 77.192C240.075 77.192 240.136 77.192 240.196 77.192C240.256 77.192 240.317 77.192 240.377 77.192C240.438 77.192 240.498 77.192 240.558 77.192C240.619 77.192 240.679 77.192 240.739 77.192C240.8 77.192 240.86 77.192 240.921 77.192C240.981 77.192 241.041 77.192 241.102 77.192C241.162 77.192 241.223 77.192 241.283 77.192C241.344 77.192 241.404 77.192 241.464 77.192C241.525 77.192 241.585 77.192 241.646 77.192C241.706 77.192 241.766 77.192 241.827 77.192C241.887 77.192 241.948 77.192 242.008 77.192C242.068 77.192 242.129 77.192 242.189 77.192C242.25 77.192 242.31 77.192 242.37 77.192C242.431 77.192 242.491 77.192 242.552 77.192C242.612 77.192 242.672 77.192 242.733 77.192C242.793 77.192 242.854 77.192 242.914 77.192C242.974 77.192 243.035 77.192 243.095 77.192C243.156 77.192 243.216 77.192 243.276 77.192C243.337 77.192 243.397 77.192 243.457 77.192C243.518 77.192 243.578 77.192 243.638 77.192C243.699 77.192 243.759 77.192 243.819 77.192C243.88 77.192 243.94 77.192 244 77.192C244.061 77.192 244.121 77.192 244.181 77.192C244.242 77.192 244.302 77.192 244.362 77.192C244.423 77.192 244.483 77.192 244.543 77.192C244.603 77.192 244.664 77.192 244.724 77.192C244.784 77.192 244.844 77.192 244.905 77.192C244.965 77.192 245.025 77.192 245.085 77.192C245.146 77.192 245.206 77.192 245.266 77.192C245.326 77.192 245.386 77.192 245.447 77.192C245.507 77.192 245.567 77.192 245.627 77.192C245.687 77.192 245.747 77.192 245.807 77.192C245.868 77.192 245.928 77.192 245.988 77.192C246.048 77.192 246.108 77.192 246.168 77.192C246.228 77.192 246.288 77.192 246.348 77.192C246.408 77.192 246.468 77.192 246.528 77.192C246.588 77.192 246.648 77.192 246.708 77.192C246.768 77.192 246.828 77.192 246.888 77.192C246.948 77.192 247.008 77.192 247.068 77.192C247.128 77.192 247.188 77.192 247.248 77.192C247.308 77.192 247.368 77.192 247.427 77.192C247.487 77.192 247.547 77.192 247.607 77.192C247.667 77.192 247.726 77.192 247.786 77.192C247.846 77.192 247.906 77.192 247.966 77.192C248.025 77.192 248.085 77.192 248.145 77.192C248.204 77.192 248.264 77.192 248.324 77.192C248.383 77.192 248.443 77.192 248.503 77.192C248.562 77.192 248.622 77.192 248.682 77.192C248.741 77.192 248.801 77.192 248.86 77.192C248.92 77.192 248.979 77.192 249.039 77.192C249.098 77.192 249.158 77.192 249.217 77.192C249.277 77.192 249.336 77.192 249.396 77.192C249.455 77.192 249.514 77.192 249.574 77.192C249.633 77.192 249.692 77.192 249.752 77.192C249.811 77.192 249.87 77.192 249.93 77.192C249.989 77.192 250.048 77.192 250.107 77.192C250.166 77.192 250.226 77.192 250.285 77.192C250.344 77.192 250.403 77.192 250.462 77.192C250.521 77.192 250.58 77.192 250.639 77.192C250.698 77.192 250.757 77.192 250.816 77.192C250.875 77.192 250.934 77.192 250.993 77.192C251.052 77.192 251.111 77.192 251.17 77.192C251.229 77.192 251.288 77.192 251.347 77.192C251.405 77.192 251.464 77.192 251.523 77.192C251.582 77.192 251.641 77.192 251.699 77.192C251.758 77.192 251.817 77.192 251.875 77.192C251.934 77.192 251.992 77.192 252.051 77.192C252.11 77.192 252.168 77.192 252.227 77.192C252.285 77.192 252.344 77.192 252.402 77.192C252.461 77.192 252.519 77.192 252.577 77.192C252.636 77.192 252.694 77.192 252.752 77.192C252.811 77.192 252.869 77.192 252.927 77.192C252.986 77.192 253.044 77.192 253.102 77.192C253.16 77.192 253.218 77.192 253.276 77.192C253.334 77.192 253.393 77.192 253.451 77.192C253.509 77.192 253.567 77.192 253.625 77.192C253.683 77.192 253.74 77.192 253.798 77.192C253.856 77.192 253.914 77.192 253.972 77.192C254.03 77.192 254.087 77.192 254.145 77.192C254.203 77.192 254.261 77.192 254.318 77.192C254.376 77.192 254.434 77.192 254.491 77.192C254.549 77.192 254.606 77.192 254.664 77.192C254.721 77.192 254.779 77.192 254.836 77.192C254.894 77.192 254.951 77.192 255.008 77.192C255.066 77.192 255.123 77.192 255.18 77.192C255.238 77.192 255.295 77.192 255.352 77.192C255.409 77.192 255.466 77.192 255.523 77.192C255.58 77.192 255.637 77.192 255.694 77.192C255.751 77.192 255.808 77.192 255.865 77.192C255.922 77.192 255.979 77.192 256.036 77.192C256.093 77.192 256.15 77.192 256.206 77.192C256.263 77.192 256.32 77.192 256.376 77.192C256.433 77.192 256.49 77.192 256.546 77.192C256.603 77.192 256.659 77.192 256.716 77.192C256.772 77.192 256.829 77.192 256.885 77.192C256.941 77.192 256.998 77.192 257.054 77.192C257.11 77.192 257.167 77.192 257.223 77.192C257.279 77.192 257.335 77.192 257.391 77.192C257.447 77.192 257.503 77.192 257.559 77.192C257.615 77.192 257.671 77.192 257.727 77.192C257.783 77.192 257.839 77.192 257.895 77.192C257.95 77.192 258.006 77.192 258.062 77.192C258.118 77.192 258.173 77.192 258.229 77.192C258.284 77.192 258.34 77.192 258.395 77.192C258.451 77.192 258.506 77.192 258.562 77.192C258.617 77.192 258.672 77.192 258.728 77.192C258.783 77.192 258.838 77.192 258.893 77.192C258.948 77.192 259.004 77.192 259.059 77.192C259.114 77.192 259.169 77.192 259.224 77.192C259.279 77.192 259.333 77.192 259.388 77.192C259.443 77.192 259.498 77.192 259.553 77.192C259.607 77.192 259.662 77.192 259.717 77.192C259.771 77.192 259.826 77.192 259.88 77.192C259.935 77.192 259.989 77.192 260.044 77.192C260.098 77.192 260.152 77.192 260.207 77.192C260.261 77.192 260.315 77.192 260.369 77.192C260.424 77.192 260.478 77.192 260.532 77.192C260.586 77.192 260.64 77.192 260.694 77.192C260.748 77.192 260.801 77.192 260.855 77.192C260.909 77.192 260.963 77.192 261.016 77.192C261.07 77.192 261.124 77.192 261.177 77.192C261.231 77.192 261.284 77.192 261.338 77.192C261.391 77.192 261.445 77.192 261.498 77.192C261.551 77.192 261.604 77.192 261.658 77.192C261.711 77.192 261.764 77.192 261.817 77.192C261.87 77.192 261.923 77.192 261.976 77.192C262.029 77.192 262.082 77.192 262.135 77.192C262.187 77.192 262.24 77.192 262.293 77.192C262.346 77.192 262.398 77.192 262.451 77.192C262.503 77.192 262.556 77.192 262.608 77.192C262.661 77.192 262.713 77.192 262.765 77.192C262.817 77.192 262.87 77.192 262.922 77.192C262.974 77.192 263.026 77.192 263.078 77.192C263.13 77.192 263.182 77.192 263.234 77.192C263.286 77.192 263.338 77.192 263.389 77.192C263.441 77.192 263.493 77.192 263.544 77.192C263.596 77.192 263.647 77.192 263.699 77.192C263.75 77.192 263.802 77.192 263.853 77.192C263.904 77.192 263.956 77.192 264.007 77.192C264.058 77.192 264.109 77.192 264.16 77.192C264.211 77.192 264.262 77.192 264.313 77.192C264.364 77.192 264.415 77.192 264.465 77.192C264.516 77.192 264.567 77.192 264.617 77.192C264.668 77.192 264.719 77.192 264.769 77.192C264.819 77.192 264.87 77.192 264.92 77.192C264.97 77.192 265.021 77.192 265.071 77.192C265.121 77.192 265.171 77.192 265.221 77.192C265.271 77.192 265.321 77.192 265.371 77.192C265.421 77.192 265.471 77.192 265.52 77.192C265.57 77.192 265.62 77.192 265.669 77.192C265.719 77.192 265.768 77.192 265.817 77.192C265.867 77.192 265.916 77.192 265.965 77.192C266.015 77.192 266.064 77.192 266.113 77.192C266.162 77.192 266.211 77.192 266.26 77.192C266.309 77.192 266.358 77.192 266.406 77.192C266.455 77.192 266.504 77.192 266.552 77.192C266.601 77.192 266.65 77.192 266.698 77.192C266.746 77.192 266.795 77.192 266.843 77.192C266.891 77.192 266.94 77.192 266.988 77.192C267.036 77.192 267.084 77.192 267.132 77.192C267.18 77.192 267.228 77.192 267.275 77.192C267.323 77.192 267.371 77.192 267.418 77.192C267.466 77.192 267.514 77.192 267.561 77.192C267.609 77.192 267.656 77.192 267.703 77.192C267.75 77.192 267.798 77.192 267.845 77.192C267.892 77.192 267.939 77.192 267.986 77.192C268.033 77.192 268.08 77.192 268.126 77.192C268.173 77.192 268.22 77.192 268.266 77.192C268.313 77.192 268.36 77.192 268.406 77.192C268.452 77.192 268.499 77.192 268.545 77.192C268.591 77.192 268.637 77.192 268.683 77.192C268.729 77.192 268.775 77.192 268.821 77.192C268.867 77.192 268.913 77.192 268.959 77.192C269.004 77.192 269.05 77.192 269.096 77.192C269.141 77.192 269.187 77.192 269.232 77.192C269.277 77.192 269.323 77.192 269.368 77.192C269.413 77.192 269.458 77.192 269.503 77.192C269.548 77.192 269.593 77.192 269.638 77.192C269.682 77.192 269.727 77.192 269.772 77.192C269.816 77.192 269.861 77.192 269.905 77.192C269.95 77.192 269.994 77.192 270.038 77.192C270.083 77.192 270.127 77.192 270.171 77.192C270.215 77.192 270.259 77.192 270.303 77.192C270.346 77.192 270.39 77.192 270.434 77.192C270.478 77.192 270.521 77.192 270.565 77.192C270.608 77.192 270.651 77.192 270.695 77.192C270.738 77.192 270.781 77.192 270.824 77.192C270.867 77.192 270.91 77.192 270.953 77.192C270.996 77.192 271.039 77.192 271.082 77.192C271.124 77.192 271.167 77.192 271.209 77.192C271.252 77.192 271.294 77.192 271.337 77.192C271.379 77.192 271.421 77.192 271.463 77.192C271.505 77.192 271.547 77.192 271.589 77.192C271.631 77.192 271.673 77.192 271.715 77.192C271.756 77.192 271.798 77.192 271.839 77.192C271.881 77.192 271.922 77.192 271.964 77.192C272.005 77.192 272.046 77.192 272.087 77.192C272.128 77.192 272.169 77.192 272.21 77.192C272.251 77.192 272.292 77.192 272.333 77.192C272.373 77.192 272.414 77.192 272.454 77.192C272.495 77.192 272.535 77.192 272.575 77.192C272.616 77.192 272.656 77.192 272.696 77.192C272.736 77.192 272.776 77.192 272.816 77.192C272.855 77.192 272.895 77.192 272.935 77.192C272.974 77.192 273.014 77.192 273.053 77.192C273.093 77.192 273.132 77.192 273.171 77.192C273.21 77.192 273.249 77.192 273.288 77.192C273.327 77.192 273.366 77.192 273.405 77.192C273.444 77.192 273.482 77.192 273.521 77.192C273.56 77.192 273.598 77.192 273.636 77.192C273.675 77.192 273.713 77.192 273.751 77.192C273.789 77.192 273.827 77.192 273.865 77.192C273.903 77.192 273.941 77.192 273.978 77.192C274.016 77.192 274.053 77.192 274.091 77.192C274.128 77.192 274.166 77.192 274.203 77.192C274.24 77.192 274.277 77.192 274.314 77.192C274.351 77.192 274.388 77.192 274.425 77.192C274.461 77.192 274.498 77.192 274.535 77.192C274.571 77.192 274.608 77.192 274.644 77.192C274.68 77.192 274.716 77.192 274.752 77.192C274.788 77.192 274.824 77.192 274.86 77.192C274.896 77.192 274.932 77.192 274.967 77.192C275.003 77.192 275.039 77.192 275.074 77.192C275.109 77.192 275.144 77.192 275.18 77.192C275.215 77.192 275.25 77.192 275.285 77.192C275.32 77.192 275.354 77.192 275.389 77.192C275.424 77.192 275.458 77.192 275.493 77.192C275.527 77.192 275.561 77.192 275.596 77.192C275.63 77.192 275.664 77.192 275.698 77.192C275.732 77.192 275.766 77.192 275.799 77.192C275.833 77.192 275.867 77.192 275.9 77.192C275.933 77.192 275.967 77.192 276 77.192V73.192ZM202.5 73.192C202.218 73.192 202.324 73.136 202.558 73.2841C202.896 73.4981 203.079 73.8627 203.112 74.1582C203.133 74.3498 203.08 74.3913 203.151 74.1964C203.214 74.0274 203.331 73.7855 203.52 73.4697C204.356 72.0744 205.676 70.6242 206.6 69.392L203.4 66.992C202.824 67.7598 201.05 69.8096 200.089 71.4143C199.829 71.8485 199.578 72.3254 199.398 72.8127C199.228 73.274 199.059 73.9092 199.136 74.6009C199.225 75.3963 199.635 76.1671 200.416 76.6624C201.094 77.0918 201.86 77.192 202.5 77.192V73.192Z" fill="url(#paint0_linear)" fill-opacity="0.68"/>
<g filter="url(#filter0_d)">
<path d="M21.3528 61.64C16.6594 61.64 13.2674 60.168 11.1768 57.224C9.08608 54.2373 8.04075 49.8213 8.04075 43.976V26.632C8.04075 22.6213 8.44608 19.336 9.25675 16.776C10.1101 14.1733 11.5394 12.1893 13.5448 10.824C15.5928 9.416 18.3874 8.712 21.9288 8.712C26.7074 8.712 30.1421 9.928 32.2328 12.36C34.3661 14.792 35.4328 18.6107 35.4328 23.816V25.736H28.6488V24.136C28.6488 21.6613 28.4994 19.7627 28.2008 18.44C27.9021 17.0747 27.2621 16.0507 26.2808 15.368C25.3421 14.6853 23.9341 14.344 22.0568 14.344C20.0514 14.344 18.5581 14.8133 17.5768 15.752C16.5954 16.648 15.9554 17.864 15.6568 19.4C15.4008 20.936 15.2728 22.984 15.2728 25.544V44.744C15.2728 48.712 15.7421 51.5707 16.6808 53.32C17.6621 55.0267 19.5181 55.88 22.2488 55.88C24.9368 55.88 26.7714 54.9413 27.7528 53.064C28.7768 51.1867 29.2888 48.1787 29.2888 44.04V40.456H22.6968V35.336H35.8168V61H31.2728L30.5688 55.048C28.9474 59.4427 25.8754 61.64 21.3528 61.64ZM42.0988 65.032C44.6588 65.032 46.4081 64.84 47.3468 64.456C48.3281 64.072 48.8188 63.3467 48.8188 62.28C48.8188 61.768 48.3494 59.5067 47.4108 55.496L39.9868 24.008H46.8988L51.8908 51.656L56.6908 24.008H63.6028L54.7708 63.048C54.1734 65.6507 52.9148 67.5067 50.9948 68.616C49.0748 69.7253 46.3868 70.28 42.9308 70.28H42.0988V65.032ZM67.9293 24.008H74.7773V29.256C76.0573 27.1653 77.3586 25.6933 78.6813 24.84C80.0466 23.9867 81.4759 23.56 82.9693 23.56C83.3533 23.56 83.7159 23.5813 84.0573 23.624V31.176C82.6919 30.664 81.4333 30.408 80.2812 30.408C79.1719 30.408 78.1693 30.6853 77.2733 31.24C76.4199 31.752 75.5879 32.6693 74.7773 33.992V61H67.9293V24.008ZM98.4758 61.512C94.5504 61.512 91.7558 60.36 90.0918 58.056C88.4704 55.7093 87.6598 52.3173 87.6598 47.88V37.128C87.6598 32.6907 88.4704 29.32 90.0918 27.016C91.7558 24.6693 94.5504 23.496 98.4758 23.496C102.358 23.496 105.11 24.6693 106.732 27.016C108.396 29.32 109.228 32.6907 109.228 37.128V47.88C109.228 52.3173 108.396 55.7093 106.732 58.056C105.11 60.36 102.358 61.512 98.4758 61.512ZM98.4758 56.456C99.7131 56.456 100.609 56.0933 101.164 55.368C101.718 54.6427 102.06 53.7467 102.188 52.68C102.316 51.6133 102.38 50.1627 102.38 48.328V36.744C102.38 34.9093 102.316 33.4587 102.188 32.392C102.06 31.2827 101.718 30.3653 101.164 29.64C100.609 28.9147 99.7131 28.552 98.4758 28.552C97.2384 28.552 96.3211 28.9147 95.7238 29.64C95.1691 30.3653 94.8278 31.2827 94.6998 32.392C94.5718 33.4587 94.5078 34.9093 94.5078 36.744V48.328C94.5078 50.1627 94.5718 51.6133 94.6998 52.68C94.8278 53.7467 95.1691 54.6427 95.7238 55.368C96.3211 56.0933 97.2384 56.456 98.4758 56.456Z" fill="#F9F9F9"/>
</g>
<path d="M70.4726 63.958C71.0513 63.958 71.56 64.0933 71.9986 64.364C72.4466 64.6253 72.792 65.008 73.0346 65.512C73.2773 66.0067 73.3986 66.59 73.3986 67.262C73.3986 68.0087 73.2586 68.676 72.9786 69.264C72.708 69.8427 72.3206 70.2953 71.8166 70.622C71.322 70.9487 70.7526 71.112 70.1086 71.112C69.194 71.112 68.5033 70.776 68.0366 70.104L67.8266 72.708C67.808 72.988 67.696 73.212 67.4906 73.38C67.2946 73.548 67.0426 73.632 66.7346 73.632C66.408 73.632 66.1513 73.5433 65.9646 73.366C65.778 73.1887 65.694 72.9553 65.7126 72.666L66.3146 64.98C66.3333 64.6813 66.4406 64.4433 66.6366 64.266C66.842 64.0793 67.1033 63.986 67.4206 63.986C67.7286 63.986 67.9713 64.07 68.1486 64.238C68.326 64.406 68.41 64.6347 68.4006 64.924C68.6246 64.616 68.914 64.378 69.2686 64.21C69.6326 64.042 70.034 63.958 70.4726 63.958ZM69.6886 69.516C70.1926 69.516 70.5846 69.3293 70.8646 68.956C71.154 68.5733 71.2986 68.0553 71.2986 67.402C71.2986 66.8047 71.1633 66.3473 70.8926 66.03C70.6313 65.7127 70.2533 65.554 69.7586 65.554C69.2733 65.554 68.886 65.7453 68.5966 66.128C68.3166 66.5013 68.1766 67.01 68.1766 67.654C68.1766 68.2607 68.3073 68.7227 68.5686 69.04C68.83 69.3573 69.2033 69.516 69.6886 69.516ZM75.5026 71.084C75.1946 71.084 74.9426 71 74.7466 70.832C74.5599 70.664 74.4806 70.4167 74.5086 70.09L75.1386 62.054C75.1666 61.7273 75.2832 61.48 75.4886 61.312C75.7032 61.144 75.9646 61.06 76.2726 61.06C76.5712 61.06 76.8139 61.144 77.0006 61.312C77.1966 61.48 77.2806 61.7273 77.2526 62.054L76.6226 70.09C76.5946 70.4167 76.4732 70.664 76.2586 70.832C76.0532 71 75.8012 71.084 75.5026 71.084ZM81.615 63.958C83.575 63.958 84.555 64.84 84.555 66.604C84.555 66.7907 84.5503 66.9353 84.541 67.038L84.289 70.104C84.2703 70.4213 84.1677 70.664 83.981 70.832C83.7943 71 83.5423 71.084 83.225 71.084C82.9263 71.084 82.6883 70.9953 82.511 70.818C82.343 70.6313 82.273 70.3933 82.301 70.104V70.062C82.1237 70.398 81.8763 70.6593 81.559 70.846C81.2417 71.0233 80.873 71.112 80.453 71.112C80.005 71.112 79.599 71.0233 79.235 70.846C78.871 70.6687 78.5817 70.426 78.367 70.118C78.1617 69.81 78.059 69.4647 78.059 69.082C78.059 68.55 78.1897 68.13 78.451 67.822C78.7217 67.5047 79.1417 67.276 79.711 67.136C80.2897 66.9867 81.0643 66.912 82.035 66.912H82.539L82.553 66.73C82.581 66.3287 82.497 66.03 82.301 65.834C82.105 65.638 81.7923 65.54 81.363 65.54C80.8777 65.54 80.299 65.6893 79.627 65.988C79.487 66.0533 79.3517 66.086 79.221 66.086C79.0157 66.086 78.8477 66.0207 78.717 65.89C78.5863 65.75 78.521 65.582 78.521 65.386C78.521 65.2367 78.563 65.092 78.647 64.952C78.731 64.812 78.8617 64.6907 79.039 64.588C79.375 64.392 79.767 64.238 80.215 64.126C80.663 64.014 81.1297 63.958 81.615 63.958ZM81.041 69.656C81.4237 69.656 81.741 69.5207 81.993 69.25C82.2543 68.97 82.4037 68.6107 82.441 68.172L82.455 67.934H82.077C81.3583 67.934 80.8497 68.004 80.551 68.144C80.2617 68.2747 80.117 68.5127 80.117 68.858C80.117 69.1007 80.201 69.2967 80.369 69.446C80.537 69.586 80.761 69.656 81.041 69.656ZM90.8676 64.588C91.0636 64.196 91.3622 64 91.7636 64C92.0156 64 92.2396 64.084 92.4356 64.252C92.6316 64.4107 92.7296 64.6113 92.7296 64.854C92.7296 64.9847 92.6922 65.1247 92.6176 65.274L88.5436 73.016C88.4316 73.2213 88.2962 73.3707 88.1376 73.464C87.9882 73.5667 87.8296 73.618 87.6616 73.618C87.4282 73.618 87.2229 73.534 87.0456 73.366C86.8682 73.2073 86.7796 73.0067 86.7796 72.764C86.7796 72.6147 86.8216 72.456 86.9056 72.288L87.7316 70.692L85.7576 65.232C85.7296 65.148 85.7156 65.0593 85.7156 64.966C85.7156 64.7047 85.8322 64.4807 86.0656 64.294C86.3082 64.098 86.5696 64 86.8496 64C87.0362 64 87.1996 64.0513 87.3396 64.154C87.4889 64.2473 87.5962 64.392 87.6616 64.588L88.9636 68.494L90.8676 64.588ZM99.6374 67.318C99.6374 67.5233 99.5814 67.682 99.4694 67.794C99.3574 67.906 99.208 67.962 99.0214 67.962H95.1154C95.1994 69.0073 95.7734 69.53 96.8374 69.53C97.136 69.53 97.3974 69.4973 97.6214 69.432C97.8454 69.3667 98.0927 69.264 98.3634 69.124C98.494 69.0587 98.62 69.026 98.7414 69.026C98.9187 69.026 99.0587 69.096 99.1614 69.236C99.2734 69.376 99.3294 69.544 99.3294 69.74C99.3294 69.8987 99.292 70.0527 99.2174 70.202C99.152 70.342 99.0447 70.4587 98.8954 70.552C98.6434 70.72 98.3167 70.8553 97.9154 70.958C97.514 71.0607 97.1034 71.112 96.6834 71.112C95.9647 71.112 95.3347 70.972 94.7934 70.692C94.252 70.412 93.832 70.02 93.5334 69.516C93.2347 69.0027 93.0854 68.41 93.0854 67.738C93.0854 67.01 93.2347 66.3613 93.5334 65.792C93.832 65.2133 94.2427 64.7653 94.7654 64.448C95.2974 64.1213 95.8994 63.958 96.5714 63.958C97.5514 63.958 98.3074 64.252 98.8394 64.84C99.3714 65.428 99.6374 66.254 99.6374 67.318ZM96.6414 65.414C95.8107 65.414 95.316 65.9133 95.1574 66.912H97.8734C97.8734 66.4267 97.766 66.058 97.5514 65.806C97.346 65.5447 97.0427 65.414 96.6414 65.414ZM105.324 63.986C105.586 63.9673 105.791 64.0327 105.94 64.182C106.09 64.3313 106.15 64.546 106.122 64.826C106.094 65.1433 106.001 65.3767 105.842 65.526C105.684 65.666 105.413 65.7547 105.03 65.792L104.652 65.834C104.083 65.8993 103.677 66.0533 103.434 66.296C103.201 66.5293 103.061 66.9027 103.014 67.416L102.804 70.09C102.776 70.4167 102.655 70.664 102.44 70.832C102.235 71 101.983 71.084 101.684 71.084C101.376 71.084 101.124 71 100.928 70.832C100.742 70.664 100.662 70.4167 100.69 70.09L101.096 64.952C101.124 64.644 101.246 64.406 101.46 64.238C101.684 64.07 101.941 63.986 102.23 63.986C102.51 63.986 102.734 64.07 102.902 64.238C103.07 64.3967 103.145 64.6207 103.126 64.91L103.112 65.078C103.364 64.7513 103.672 64.4993 104.036 64.322C104.4 64.1353 104.778 64.028 105.17 64L105.324 63.986Z" fill="#EC4646"/>
<path d="M111.449 68.3888C111.663 67.5887 111.189 66.766 110.389 66.5513C109.589 66.3365 108.766 66.8111 108.551 67.6112L111.449 68.3888ZM48 76.5H98.8904V73.5H48V76.5ZM98.8904 76.5C103.249 76.5 106.146 75.927 108.106 74.4471C110.104 72.939 110.827 70.7066 111.449 68.3888L108.551 67.6112C107.921 69.9601 107.391 71.2277 106.298 72.0529C105.168 72.9063 103.136 73.5 98.8904 73.5V76.5Z" fill="url(#paint1_linear)"/>
<defs>
<filter id="filter0_d" x="0.0407715" y="0.712036" width="119.187" height="79.568" filterUnits="userSpaceOnUse" color-interpolation-filters="sRGB">
<feFlood flood-opacity="0" result="BackgroundImageFix"/>
<feColorMatrix in="SourceAlpha" type="matrix" values="0 0 0 0 0 0 0 0 0 0 0 0 0 0 0 0 0 0 127 0"/>
<feOffset dx="1" dy="1"/>
<feGaussianBlur stdDeviation="4.5"/>
<feColorMatrix type="matrix" values="0 0 0 0 0 0 0 0 0 0 0 0 0 0 0 0 0 0 0.25 0"/>
<feBlend mode="normal" in2="BackgroundImageFix" result="effect1_dropShadow"/>
<feBlend mode="normal" in="SourceGraphic" in2="effect1_dropShadow" result="shape"/>
</filter>
<linearGradient id="paint0_linear" x1="286" y1="69.192" x2="131.5" y2="70.6921" gradientUnits="userSpaceOnUse">
<stop stop-color="#186BE7" stop-opacity="0"/>
<stop offset="0.0416667" stop-color="#1C73E8" stop-opacity="0"/>
<stop offset="0.3125" stop-color="#36A7F0"/>
<stop offset="0.53125" stop-color="#1874FD"/>
<stop offset="0.75" stop-color="#5CF5FD"/>
<stop offset="1" stop-color="#61FFFF"/>
</linearGradient>
<linearGradient id="paint1_linear" x1="116.263" y1="74.0667" x2="48.6448" y2="75.7471" gradientUnits="userSpaceOnUse">
<stop stop-color="#E47878"/>
<stop offset="1" stop-color="#E91313" stop-opacity="0"/>
</linearGradient>
</defs>
</svg>
